<?xml version="1.0" encoding="utf-8"?>
<!-- Generator: Adobe Illustrator 27.5.0, SVG Export Plug-In . SVG Version: 6.00 Build 0)  -->
<svg version="1.1" xmlns="http://www.w3.org/2000/svg" xmlns:xlink="http://www.w3.org/1999/xlink" x="0px" y="0px"
	 viewBox="0 0 500 500" style="enable-background:new 0 0 500 500;" xml:space="preserve">
<g id="Floor">
	<ellipse id="Floor_13_" style="fill:#F5F5F5;" cx="250.167" cy="340.237" rx="230.295" ry="132.961"/>
</g>
<g id="Clouds">
	<g id="Clouds_5_">
		<path id="XMLID_1869_" style="fill:#EBEBEB;" d="M121.128,58.635l-8.273,4.776c0.041-0.369,0.07-0.736,0.07-1.095V59.92
			c0-4.265-2.994-5.994-6.688-3.861c-1.496,0.863-2.872,2.232-3.986,3.833c-0.605-5.363-4.813-7.361-9.923-4.41
			c-5.526,3.19-10.006,10.949-10.006,17.33v3.586c0,1.653,0.306,3.045,0.847,4.154l-6.872,3.967c-2.049,1.183-3.71,4.06-3.71,6.426
			c0,2.366,1.661,3.325,3.71,2.142l44.831-25.883c2.049-1.183,3.71-4.06,3.71-6.426C124.838,58.411,123.177,57.452,121.128,58.635z"
			/>
		<path id="XMLID_1196_" style="fill:#EBEBEB;" d="M156.532,82.74l-6.244,3.605c0.031-0.279,0.053-0.556,0.053-0.826V83.71
			c0-3.219-2.26-4.524-5.048-2.914c-1.129,0.652-2.167,1.684-3.008,2.893c-0.456-4.048-3.632-5.555-7.489-3.328
			c-4.17,2.408-7.551,8.264-7.551,13.079v2.706c0,1.247,0.231,2.298,0.639,3.135l-5.186,2.994c-1.546,0.893-2.8,3.064-2.8,4.849
			c0,1.786,1.253,2.509,2.8,1.617l33.834-19.534c1.546-0.893,2.8-3.064,2.8-4.85C159.332,82.571,158.079,81.847,156.532,82.74z"/>
	</g>
</g>
<g id="Plants">
	<g id="Plants_1_">
		<g id="XMLID_3295_">
			<path id="XMLID_3299_" style="fill:#27DEBF;" d="M103.783,386.084l10.324-5.961c0,0,2.529-22.11,0.846-39.233
				c-2.364-24.061-17.903-53.013-36.441-46.214c-18.538,6.799,8.5,31.303,14.518,51.712
				C99.048,366.797,103.783,386.084,103.783,386.084z"/>
			<path id="XMLID_3298_" style="opacity:0.2;" d="M103.783,386.084l10.324-5.961c0,0,2.529-22.11,0.846-39.233
				c-2.364-24.061-17.903-53.013-36.441-46.214c-18.538,6.799,8.5,31.303,14.518,51.712
				C99.048,366.797,103.783,386.084,103.783,386.084z"/>
			<path id="XMLID_3297_" style="fill:#FFFFFF;" d="M109.213,383.574c-0.007,0-0.014,0-0.021,0
				c-0.345-0.012-0.615-0.301-0.604-0.646c1.813-53.464-24.801-80.357-25.069-80.622c-0.246-0.243-0.249-0.639-0.007-0.884
				c0.245-0.246,0.641-0.249,0.884-0.007c0.273,0.27,27.273,27.55,25.442,81.556C109.826,383.309,109.549,383.574,109.213,383.574z"
				/>
		</g>
		<g id="XMLID_3262_">
			<path id="XMLID_3278_" style="fill:#27DEBF;" d="M98.273,390.35l7.347-4.242c0,0,1.25-15.172-6.189-33.604
				c-6.476-16.046-22.544-29.357-30.625-26.56c-8.081,2.797-7.881,8.528-3.94,14.539C68.805,346.495,92.776,360.824,98.273,390.35z"
				/>
			<path id="XMLID_3327_" style="fill:#FFFFFF;" d="M102.148,388.738c0,0-0.002,0-0.003,0c-0.345-0.002-0.624-0.282-0.622-0.628
				c0.146-33.804-31.595-56.65-31.916-56.878c-0.281-0.199-0.349-0.589-0.148-0.871c0.197-0.28,0.586-0.35,0.871-0.148
				c0.325,0.23,32.592,23.456,32.443,57.903C102.771,388.459,102.492,388.738,102.148,388.738z"/>
		</g>
	</g>
</g>
<g id="Device">
	<g id="Device_1_">
		<g id="XMLID_121_">
			<g id="XMLID_143_">
				<path id="XMLID_147_" style="fill:#37474F;" d="M296.595,343.36l-64.02,36.98l-0.15-0.08l-24.33-14.05
					c-4.15-2.4-6.81-8.21-5.9-12.92l9.03-46.92l64.02-36.99l-9.03,46.92c-0.91,4.71,1.75,10.52,5.9,12.92L296.595,343.36z"/>
				<polygon id="XMLID_146_" style="fill:#263238;" points="211.225,306.37 202.274,352.884 266.287,315.927 274.567,272.907 
					270.533,272.103 				"/>
				<path id="XMLID_145_" style="fill:#263238;" d="M232.578,380.345l-24.486-14.137c-4.151-2.396-6.806-8.208-5.9-12.914
					l9.03-46.926l-10.676-6.164l-10.319,53.68c-1.365,7.099,2.641,15.864,8.901,19.478l33.45,19.312V380.345z"/>
				<polygon id="XMLID_144_" style="fill:#455A64;" points="296.598,343.357 232.578,380.345 232.578,392.675 296.598,355.686 				
					"/>
			</g>
			<g id="XMLID_122_">
				<path id="XMLID_142_" style="fill:#455A64;" d="M359.225,39.306c2.948,1.702,5.339,6.025,5.339,9.654l-0.001,196.457
					c0,3.63-2.548,8.043-5.691,9.857L113.99,396.657c-3.143,1.814-8.081,1.905-11.03,0.203c-2.948-1.702-5.339-6.025-5.339-9.654
					l0.001-196.457c0-3.629,2.548-8.043,5.691-9.857L348.195,39.509C351.338,37.695,356.277,37.604,359.225,39.306z"/>
				<path id="XMLID_141_" style="fill:#263238;" d="M113.319,396.998c-3.14,1.47-7.61,1.44-10.36-0.14
					c-2.95-1.7-5.34-6.02-5.34-9.65v-196.46c0-1.81,0.64-3.82,1.67-5.61l10.68,6.17c-1.03,1.78-1.67,3.79-1.67,5.6v196.46
					C108.299,396.738,110.489,398.248,113.319,396.998z"/>
				<path id="XMLID_140_" style="fill:#37474F;" d="M364.563,245.417l0.001-196.457c0-3.629-2.548-5.101-5.691-3.286
					l-244.88,141.382c-3.143,1.815-5.691,6.228-5.691,9.857l-0.002,196.458c0,3.63,2.548,5.1,5.691,3.286l244.881-141.383
					C362.015,253.46,364.563,249.047,364.563,245.417z"/>
				<path id="XMLID_139_" style="fill:#27DEBF;" d="M352.063,55.702L118.192,190.795c-2.514,1.452-4.553,4.982-4.553,7.886
					l0.002,174.427c0,2.904,2.038,4.08,4.553,2.629l233.871-135.092c2.515-1.452,4.553-4.982,4.553-7.886l-0.002-174.427
					C356.616,55.427,354.577,54.251,352.063,55.702z"/>
				<path id="XMLID_138_" style="opacity:0.8;fill:#FFFFFF;" d="M352.063,55.702L118.192,190.795
					c-2.514,1.452-4.553,4.982-4.553,7.886l0.002,174.427c0,2.904,2.038,4.08,4.553,2.629l233.871-135.092
					c2.515-1.452,4.553-4.982,4.553-7.886l-0.002-174.427C356.616,55.427,354.577,54.251,352.063,55.702z"/>
				<g id="Window_1_">
					<g id="XMLID_136_">
						<path style="fill:#F5F5F5;" d="M130.309,354.286c-1.241,0-1.982-1.01-1.982-2.703v-138.14L341.93,90.119l0.001,137.562
							c0,2.696-1.9,5.987-4.235,7.336L132.062,353.74C131.444,354.097,130.837,354.286,130.309,354.286z"/>
						<path style="fill:#E0E0E0;" d="M341.429,90.985l0.001,136.696c0,2.495-1.825,5.656-3.985,6.903L131.812,353.307
							c-0.542,0.313-1.062,0.479-1.503,0.479c-1.338,0-1.482-1.54-1.482-2.202V213.732L341.429,90.985 M342.429,89.253
							L127.826,213.154v138.429c0,2.029,1.011,3.202,2.482,3.202c0.603,0,1.283-0.197,2.003-0.613L337.945,235.45
							c2.477-1.43,4.486-4.909,4.485-7.769L342.429,89.253L342.429,89.253z"/>
					</g>
					<g id="XMLID_123_">
						<polygon id="XMLID_135_" style="fill:#27DEBF;" points="127.826,213.154 127.826,232.576 342.428,108.676 342.429,89.253 
													"/>
						<path id="XMLID_134_" style="fill:#FAFAFA;" d="M262.48,143.028l0.001,4.181c0,0.855,0.606,1.204,1.346,0.777l65.98-38.094
							l-0.001-7.288l-65.98,38.093C263.086,141.125,262.48,142.173,262.48,143.028z"/>
						<path id="XMLID_133_" style="fill:#455A64;" d="M336.877,98.521c0.743-0.429,1.346-0.081,1.346,0.777v4.181
							c0,0.858-0.602,1.902-1.346,2.331l-7.07,4.082l-0.001-7.288L336.877,98.521z"/>
						<path id="XMLID_130_" style="fill:#FAFAFA;" d="M336.354,104.254l-0.789-0.246c0.081-0.335,0.126-0.679,0.126-1.016
							c0-0.807-0.262-1.42-0.719-1.684c-0.34-0.196-0.748-0.177-1.149,0.056c-0.884,0.51-1.576,1.951-1.576,3.279
							c0,0.807,0.262,1.42,0.719,1.684c0.155,0.089,0.324,0.134,0.5,0.134c0.21,0,0.431-0.063,0.649-0.19
							c0.531-0.307,0.99-0.952,1.274-1.705l0.79,0.246c0.029,0.009,0.058,0.013,0.087,0.013c0.125,0,0.24-0.08,0.279-0.206
							C336.594,104.466,336.508,104.302,336.354,104.254z M333.823,105.765c-0.219,0.127-0.409,0.146-0.564,0.055
							c-0.263-0.152-0.427-0.603-0.427-1.177c0-1.102,0.588-2.371,1.283-2.773c0.129-0.074,0.247-0.111,0.354-0.111
							c0.076,0,0.146,0.019,0.21,0.056c0.263,0.152,0.426,0.603,0.426,1.177C335.107,104.093,334.519,105.363,333.823,105.765z"/>
						<path id="XMLID_129_" style="fill:#37474F;" d="M127.826,203.757c0-2.861,2.008-6.339,4.486-7.769L337.944,77.266
							c2.477-1.43,4.486-0.271,4.486,2.59v9.397L127.826,213.154V203.757z"/>
						<g id="XMLID_124_">
							<g id="XMLID_125_">
								<path id="XMLID_128_" style="fill:#27DEBF;" d="M317.183,94.099c-1.162,0.671-2.104,2.303-2.104,3.645
									c0,1.342,0.942,1.886,2.104,1.215c1.162-0.671,2.104-2.303,2.104-3.645C319.287,93.972,318.345,93.428,317.183,94.099z"/>
								<path id="XMLID_127_" style="fill:#27DEBF;" d="M324.546,89.858c-1.162,0.671-2.104,2.303-2.104,3.645
									c0,1.342,0.942,1.886,2.104,1.215c1.162-0.671,2.104-2.303,2.104-3.645C326.65,89.732,325.708,89.188,324.546,89.858z"/>
								<path id="XMLID_126_" style="fill:#27DEBF;" d="M331.909,85.618c-1.162,0.671-2.104,2.303-2.104,3.645
									c0,1.342,0.942,1.886,2.104,1.215c1.162-0.671,2.104-2.303,2.104-3.645C334.013,85.491,333.071,84.947,331.909,85.618z"/>
							</g>
						</g>
					</g>
				</g>
			</g>
		</g>
		<g id="XMLID_50_">
			<g id="XMLID_115_">
				<path id="XMLID_120_" style="fill:#27DEBF;" d="M221.911,217.718l26.434-15.262c1.674-0.967,3.031-0.183,3.031,1.75l0,30.524
					c0,1.933-1.357,4.284-3.031,5.25l-26.434,15.262c-1.674,0.967-3.031,0.183-3.031-1.75l0-30.523
					C218.88,221.035,220.237,218.684,221.911,217.718z"/>
				<path id="XMLID_119_" style="fill:#455A64;" d="M229.169,255.741l15.981-9.226c1.196-0.69,2.165-0.2,2.165,1.095
					c0,1.295-0.97,2.905-2.165,3.595l-15.98,9.227c-1.196,0.69-2.165,0.2-2.165-1.095
					C227.003,258.041,227.973,256.431,229.169,255.741z"/>
				<g id="XMLID_116_">
					<path id="XMLID_118_" style="fill:#FAFAFA;" d="M234.904,216.599c2.804-1.619,5.077-0.307,5.077,2.931
						c0,3.238-2.273,7.175-5.077,8.794c-2.804,1.619-5.077,0.307-5.077-2.931C229.827,222.155,232.1,218.218,234.904,216.599z"/>
					<path id="XMLID_117_" style="fill:#FAFAFA;" d="M244.909,233.915c0-5.319-3.735-7.681-8.341-5.021l-2.88,1.662
						c-4.606,2.66-8.341,9.128-8.341,14.447v1.432l19.561-11.286V233.915z"/>
				</g>
			</g>
			<g id="XMLID_108_">
				<path id="XMLID_114_" style="fill:#27DEBF;" d="M270.68,189.538l26.434-15.262c1.674-0.967,3.031-0.183,3.031,1.75l0,30.524
					c0,1.933-1.357,4.284-3.031,5.25l-26.434,15.262c-1.674,0.967-3.031,0.183-3.031-1.75l0-30.523
					C267.649,192.855,269.006,190.505,270.68,189.538z"/>
				<path id="XMLID_113_" style="opacity:0.2;" d="M270.68,189.538l26.434-15.262c1.674-0.967,3.031-0.183,3.031,1.75l0,30.524
					c0,1.933-1.357,4.284-3.031,5.25l-26.434,15.262c-1.674,0.967-3.031,0.183-3.031-1.75l0-30.523
					C267.649,192.855,269.006,190.505,270.68,189.538z"/>
				<path id="XMLID_112_" style="fill:#455A64;" d="M277.938,227.561l15.981-9.226c1.196-0.69,2.165-0.2,2.165,1.095
					c0,1.295-0.97,2.905-2.166,3.595l-15.98,9.227c-1.196,0.69-2.165,0.2-2.165-1.096
					C275.772,229.861,276.742,228.251,277.938,227.561z"/>
				<g id="XMLID_109_">
					<path id="XMLID_111_" style="fill:#FAFAFA;" d="M283.673,188.42c2.804-1.619,5.077-0.307,5.077,2.931
						c0,3.238-2.273,7.175-5.077,8.794c-2.804,1.619-5.077,0.307-5.077-2.931C278.596,193.975,280.869,190.038,283.673,188.42z"/>
					<path id="XMLID_110_" style="fill:#FAFAFA;" d="M293.678,205.735c0-5.319-3.735-7.681-8.341-5.021l-2.88,1.662
						c-4.606,2.66-8.341,9.128-8.341,14.447v1.432l19.561-11.286V205.735z"/>
				</g>
			</g>
			<g id="XMLID_100_">
				<g id="XMLID_106_">
					<path id="XMLID_107_" style="fill:#27DEBF;" d="M173.191,245.83l26.434-15.262c1.674-0.967,3.031-0.183,3.031,1.75l0,30.524
						c0,1.933-1.357,4.284-3.031,5.25l-26.434,15.262c-1.674,0.966-3.031,0.183-3.031-1.75l0-30.524
						C170.16,249.147,171.517,246.797,173.191,245.83z"/>
				</g>
				<path id="XMLID_105_" style="opacity:0.5;fill:#FFFFFF;" d="M173.191,245.83l26.434-15.262c1.674-0.967,3.031-0.183,3.031,1.75
					l0,30.524c0,1.933-1.357,4.284-3.031,5.25l-26.434,15.262c-1.674,0.966-3.031,0.183-3.031-1.75l0-30.524
					C170.16,249.147,171.517,246.797,173.191,245.83z"/>
				<path id="XMLID_104_" style="fill:#455A64;" d="M180.449,283.853l15.981-9.226c1.196-0.69,2.165-0.2,2.165,1.095
					c0,1.295-0.97,2.905-2.166,3.595l-15.98,9.227c-1.196,0.69-2.165,0.2-2.165-1.096
					C178.284,286.153,179.253,284.543,180.449,283.853z"/>
				<g id="XMLID_101_">
					<path id="XMLID_103_" style="fill:#FAFAFA;" d="M186.184,244.712c2.804-1.619,5.077-0.306,5.077,2.931
						c0,3.238-2.273,7.175-5.077,8.794c-2.804,1.619-5.077,0.307-5.077-2.931C181.107,250.267,183.38,246.33,186.184,244.712z"/>
					<path id="XMLID_102_" style="fill:#FAFAFA;" d="M196.189,262.027c0-5.319-3.735-7.681-8.341-5.021l-2.88,1.662
						c-4.606,2.66-8.341,9.128-8.341,14.447v1.431l19.561-11.286V262.027z"/>
				</g>
			</g>
		</g>
	</g>
</g>
<g id="User">
	<g id="XMLID_682_">
		<g id="XMLID_217_">
			<g id="XMLID_212_">
				<g id="XMLID_3282_">
					<g id="XMLID_3310_">
						<g id="XMLID_3311_">
							<path id="XMLID_3318_" style="fill:#27DEBF;" d="M426.684,182.628l-10.621-6.125c-10.711-6.047-25.394-5.155-41.661,4.24
								c-15.219,8.77-29.098,23.408-39.564,40.345c-12.094,19.503-19.704,42.085-19.704,62.325c0,18.878,6.607,32.122,17.296,38.325
								l10.726,6.148c10.8,6.885,26.048,6.275,42.963-3.491c32.741-18.902,59.284-64.873,59.285-102.678
								C445.405,202.036,438.201,188.466,426.684,182.628z"/>
							<g id="XMLID_3312_">
								<path id="XMLID_3317_" style="opacity:0.1;" d="M342.737,327.641l-10.307-5.903c-10.691-6.195-17.288-19.458-17.288-38.334
									c0-20.24,7.604-42.807,19.704-62.309l11.672,6.798c-12.1,19.502-19.682,42.046-19.682,62.265
									C326.835,308.206,332.874,321.111,342.737,327.641z"/>
								<path id="XMLID_3316_" style="opacity:0.4;fill:#FFFFFF;" d="M426.248,182.379c-10.556-5.121-24.646-3.824-40.123,5.099
									c-15.231,8.812-29.119,23.461-39.608,40.414l-11.672-6.798c10.467-16.953,24.355-31.58,39.564-40.347
									c16.259-9.393,30.954-10.288,41.666-4.249L426.248,182.379z"/>
							</g>
						</g>
					</g>
				</g>
				<g id="XMLID_2914_">
					<g id="XMLID_2915_">
						<g id="XMLID_2929_">
							<path id="XMLID_3333_" style="fill:#FAFAFA;" d="M359.533,324.48c-4.633,0-8.744-1.124-12.22-3.342l-0.169-0.107
								l-0.341-0.194c-7.813-5.313-12.113-16.195-12.113-30.684c0-17.962,6.734-39.118,18.477-58.042
								c10.199-16.48,23.273-29.868,36.818-37.703c7.956-4.589,15.729-7.018,22.472-7.018c3.65,0,6.991,0.702,9.934,2.087
								l0.362,0.206l0.174,0.088c9.109,4.609,14.333,16.251,14.333,31.941c0,35.204-24.803,78.158-55.289,95.752
								C374.026,322.055,366.267,324.48,359.533,324.48z"/>
						</g>
					</g>
				</g>
			</g>
			<g id="XMLID_3704_">
				<defs>
					<path id="XMLID_3707_" d="M359.533,324.48c-4.633,0-8.744-1.124-12.22-3.342l-0.169-0.107l-0.341-0.194
						c-7.813-5.313-12.113-16.195-12.113-30.684c0-17.962,6.734-39.118,18.477-58.042c10.199-16.48,23.273-29.868,36.818-37.703
						c7.956-4.589,15.729-7.018,22.472-7.018c3.65,0,6.991,0.702,9.934,2.087l0.362,0.206l0.174,0.088
						c9.109,4.609,14.333,16.251,14.333,31.941c0,35.204-24.803,78.158-55.289,95.752
						C374.026,322.055,366.267,324.48,359.533,324.48z"/>
				</defs>
				<clipPath id="XMLID_00000144333952708571944770000003666848338925695113_">
					<use xlink:href="#XMLID_3707_"  style="overflow:visible;"/>
				</clipPath>
				<g id="XMLID_3363_" style="clip-path:url(#XMLID_00000144333952708571944770000003666848338925695113_);">
					<path id="XMLID_3711_" style="fill:#263238;" d="M388.718,267.486L388.718,267.486c-15.091,4.044-27.324-4.912-27.324-20.003
						v-9.671c0-12.79,10.368-25.936,23.158-29.363l8.332-2.232c12.79-3.427,23.158,4.163,23.158,16.953v9.671
						C416.042,247.931,403.809,263.442,388.718,267.486z"/>
					<g id="XMLID_3588_">
						<path id="XMLID_3701_" style="fill:#FFA8A7;" d="M347.028,360.974c0.098-1.602,2.654-19.104,4.413-28.981l17.122,1.472
							l-6.243,36.09l-11.226-0.735C346.576,368.995,346.931,362.575,347.028,360.974z"/>
						<polygon id="XMLID_3648_" style="fill:#FFA8A7;" points="425.87,305.61 437.93,343.356 422.85,351.617 413.81,316.105 						
							"/>
						<path id="XMLID_3623_" style="fill:#27DEBF;" d="M399.47,273.281c8.026-2.055,16.865-1.054,19.906,5.399
							c3.041,6.453,9.692,29.385,9.692,29.385s-5.722,8.622-16.974,10.793L399.47,273.281z"/>
						<path id="XMLID_6_" style="opacity:0.3;" d="M399.47,273.281c8.026-2.055,16.865-1.054,19.906,5.399
							c3.041,6.453,9.692,29.385,9.692,29.385s-5.722,8.622-16.974,10.793L399.47,273.281z"/>
						<path id="XMLID_3592_" style="fill:#F5F5F5;" d="M382.853,278.065l-6.678,2.101c-7.271,3.969-9.89,10.428-12.945,18.693
							c-2.326,6.292-2.352,12.873-0.577,18.326l8.508,26.141c0,0-3.984,12.186-8.608,23.931c21.351,8.04,48.012-6.338,54.432-18.1
							c0.272-2.203-0.097-11.705,0.421-22.767c0.552-11.796,1.938-25.32,0.351-32.095c-2.945-12.576-8.46-23.646-19.437-20.704
							L382.853,278.065z"/>
						<path id="XMLID_3591_" style="fill:#27DEBF;" d="M376.174,280.165c-7.286,3.142-17.986,7.705-21.674,28.692
							c-3.739,21.27-4.458,26.287-4.458,26.287s6.371,5.632,18.46,2.327C368.501,337.472,379.164,294.816,376.174,280.165z"/>
						<path id="XMLID_23_" style="opacity:0.3;" d="M376.174,280.165c-7.286,3.142-17.986,7.705-21.674,28.692
							c-3.739,21.27-4.458,26.287-4.458,26.287s6.371,5.632,18.46,2.327C368.501,337.472,379.164,294.816,376.174,280.165z"/>
						<path id="XMLID_3590_" style="fill:#263238;" d="M364.822,308.478L364.822,308.478c8.551-2.291,15.483-11.081,15.483-19.632
							v-27.491h0c-8.551,2.291-15.483,11.081-15.483,19.632V308.478z"/>
						<path id="XMLID_3589_" style="fill:#E0E0E0;" d="M368.824,336.15c1.341-5.673,2.765-12.12,4.103-19.002
							c0,0-0.055,14.222-2.155,24.986L368.824,336.15z"/>
					</g>
					<g id="XMLID_3375_">
						<path id="XMLID_3587_" style="fill:#FFA8A7;" d="M407.066,215.177c2.886,1.196,6.453,8.623,6.102,26.289
							c-0.298,14.973-4.479,19.772-6.578,21.395c-2.099,1.623-6.148,2.063-10.083,2.36v8.938c0,0,5.439,5.838,5.097,10.029
							c-0.342,4.19-7.854,7.171-12.944,4.532c-5.09-2.64-8.353-7.86-8.353-7.86v-21.605c0,0-2.657,4.809-7.003,2.641
							s-4.511-10.372-1.984-14.011c2.526-3.639,7.972-4.16,8.988-0.34c0,0,6.277-1.417,14.635-8.959
							C403.299,231.042,406.51,221.1,407.066,215.177z"/>
						<path id="XMLID_3586_" style="fill:#263238;" d="M398.767,241.583c0.047,1.061-0.641,2.154-1.535,2.443
							c-0.895,0.289-1.658-0.337-1.704-1.398c-0.047-1.061,0.641-2.154,1.535-2.443
							C397.958,239.896,398.721,240.522,398.767,241.583z"/>
						<path id="XMLID_3585_" style="fill:#F28F8F;" d="M399.201,254.091l3.767,0.378c-0.313,1.329-1.409,2.321-2.45,2.217
							C399.477,256.582,398.888,255.42,399.201,254.091z"/>
						<path id="XMLID_3584_" style="fill:#263238;" d="M412.065,232.269l-3.282-1.747c0.599-1.242,1.819-1.859,2.725-1.376
							C412.415,229.628,412.664,231.026,412.065,232.269z"/>
						<path id="XMLID_3583_" style="fill:#263238;" d="M411.309,236.868c0.047,1.06-0.641,2.154-1.535,2.443
							c-0.895,0.289-1.658-0.337-1.704-1.398c-0.047-1.061,0.641-2.154,1.535-2.443
							C410.499,235.182,411.262,235.807,411.309,236.868z"/>
						<polygon id="XMLID_3582_" style="fill:#F28F8F;" points="403.658,237.846 403.915,249.051 409.054,245.836 						"/>
						<path id="XMLID_3581_" style="fill:#F28F8F;" d="M396.506,265.22c-4.148,0.483-12.681-0.061-14.011-3.6
							c0,0,0.443,2.329,2.992,4.169c2.549,1.84,11.019,2.413,11.019,2.413V265.22z"/>
					</g>
				</g>
			</g>
		</g>
		<g id="XMLID_216_">
			<g id="XMLID_3236_">
				<g id="XMLID_3272_">
					<g id="XMLID_3273_">
						<path id="XMLID_3277_" style="fill:#37474F;" d="M371.559,306.115l-8.167-4.715c0,0-0.008,0-0.017,0l-0.085-0.051
							l-0.009,0.017c-4.061-2.293-9.629-1.955-15.797,1.608c-5.771,3.325-11.034,8.876-15.002,15.298
							c-4.586,7.395-7.472,15.958-7.472,23.633c0,7.158,2.505,12.185,6.558,14.537v0.009l0.025,0.008l8.293,4.736
							c4.095,2.611,9.877,2.379,16.291-1.324c12.415-7.168,22.48-24.599,22.48-38.935
							C378.658,313.474,375.927,308.329,371.559,306.115z"/>
						<g id="XMLID_3274_">
							<path id="XMLID_3276_" style="fill:#263238;" d="M339.725,361.104l-8.133-4.647l-0.026-0.009v-0.008
								c-4.054-2.349-6.555-7.378-6.555-14.536c0-7.675,2.883-16.232,7.471-23.627l8.676,5.004
								c-4.588,7.395-7.463,15.944-7.463,23.61C333.695,353.734,335.985,358.628,339.725,361.104z"/>
							<path id="XMLID_3275_" style="fill:#455A64;" d="M371.391,306.022c-4.003-1.942-9.346-1.45-15.214,1.934
								c-5.775,3.341-11.042,8.896-15.019,15.324l-8.676-5.004c3.969-6.428,9.235-11.975,15.002-15.299
								c6.165-3.562,11.737-3.901,15.799-1.611l0.009-0.017l0.085,0.051c0.008,0,0.017,0,0.017,0L371.391,306.022z"/>
						</g>
					</g>
				</g>
			</g>
			<path id="XMLID_213_" style="fill:#F5F5F5;" d="M365.932,325.275l-7.491,4.325v-12.015c0-1.924-1.013-2.898-2.263-2.177
				c-1.25,0.721-2.263,2.866-2.263,4.79v12.015l-7.492,4.325c-1.077,0.622-1.951,2.47-1.951,4.129c0,1.659,0.873,2.499,1.951,1.877
				l7.492-4.325v12.015c0,1.924,1.013,2.898,2.263,2.177c1.249-0.721,2.263-2.866,2.263-4.79v-12.015l7.491-4.325
				c1.077-0.622,1.951-2.47,1.951-4.129C367.882,325.493,367.009,324.653,365.932,325.275z"/>
		</g>
	</g>
</g>
</svg>
