<?xml version="1.0" encoding="utf-8"?>
<!-- Generator: Adobe Illustrator 27.5.0, SVG Export Plug-In . SVG Version: 6.00 Build 0)  -->
<svg version="1.1" xmlns="http://www.w3.org/2000/svg" xmlns:xlink="http://www.w3.org/1999/xlink" x="0px" y="0px"
	 viewBox="0 0 750 500" style="enable-background:new 0 0 750 500;" xml:space="preserve">
<g id="Background_Simple">
	<g>
		<path style="fill:#92E3A9;" d="M345.178,55.621c0,0-200.212,9.766-275.414,96.688S11.166,340.801,173.289,420.886
			s346.709,23.439,443.396-22.463c96.688-45.902,126.352-182.284,68.365-244.161C627.063,92.385,527.811,46.831,345.178,55.621z"/>
		<path style="opacity:0.8;fill:#FFFFFF;" d="M345.178,55.621c0,0-200.212,9.766-275.414,96.688S11.166,340.801,173.289,420.886
			s346.709,23.439,443.396-22.463c96.688-45.902,126.352-182.284,68.365-244.161C627.063,92.385,527.811,46.831,345.178,55.621z"/>
	</g>
</g>
<g id="Trees">
	<g>
		<path style="fill:#92E3A9;" d="M211.388,286.396c0,0,50.11,4.958,75.508,36.022c0,0,26.833-35.986,75.027-35.249
			c13.985-16.856,22.398-38.503,22.406-62.117c0.018-53.792-43.574-97.415-97.366-97.433c-53.792-0.019-97.415,43.574-97.433,97.366
			c-0.008,23.319,8.183,44.723,21.844,61.496L211.388,286.396z"/>
		<path style="opacity:0.4;fill:#FFFFFF;" d="M211.388,286.396c0,0,50.11,4.958,75.508,36.022c0,0,26.833-35.986,75.027-35.249
			c13.985-16.856,22.398-38.503,22.406-62.117c0.018-53.792-43.574-97.415-97.366-97.433c-53.792-0.019-97.415,43.574-97.433,97.366
			c-0.008,23.319,8.183,44.723,21.844,61.496L211.388,286.396z"/>
		<path style="fill:#263238;" d="M239.564,251.206c25.032,7.927,40.577,31.19,44.632,37.906l-0.365,165.56h7.203l-1.085-145.223
			c5.457-8.264,21.073-28.884,45.189-36.252c0,0-28.642,6.794-45.368,29.618l-0.936-34.768c4.121-6.605,20.254-30.026,46.305-37.986
			c0,0-29.957,7.101-46.488,31.189l-0.944-35.039l0.067,0.467c0,0,16.916-30.449,47.365-39.752c0,0-31.349,7.44-47.604,32.892
			l-2.298-47.161l-0.712,67.6c-15.929-24.212-44.961-31.34-44.961-31.34c25.642,8.12,41.334,32.341,44.913,38.375l-0.234,34.845
			C268.257,258.259,239.564,251.206,239.564,251.206z"/>
		<path style="fill:#263238;" d="M239.564,251.206c25.032,7.927,40.577,31.19,44.632,37.906l-0.365,165.56h7.203l-1.085-145.223
			c5.457-8.264,21.073-28.884,45.189-36.252c0,0-28.642,6.794-45.368,29.618l-0.936-34.768c4.121-6.605,20.254-30.026,46.305-37.986
			c0,0-29.957,7.101-46.488,31.189l-0.944-35.039l0.067,0.467c0,0,16.916-30.449,47.365-39.752c0,0-31.349,7.44-47.604,32.892
			l-2.298-47.161l-0.712,67.6c-15.929-24.212-44.961-31.34-44.961-31.34c25.642,8.12,41.334,32.341,44.913,38.375l-0.234,34.845
			C268.257,258.259,239.564,251.206,239.564,251.206z"/>
	</g>
	<g>
		<path style="fill:#92E3A9;" d="M411.781,314.207c0,0,41.828,4.139,63.029,30.068c0,0,22.398-30.039,62.628-29.423
			c11.674-14.071,18.696-32.14,18.703-51.851c0.015-44.902-36.372-81.315-81.274-81.331c-44.902-0.015-81.315,36.372-81.331,81.274
			c-0.007,19.465,6.831,37.331,18.233,51.332L411.781,314.207z"/>
		<path style="opacity:0.4;fill:#FFFFFF;" d="M411.781,314.207c0,0,41.828,4.139,63.029,30.068c0,0,22.398-30.039,62.628-29.423
			c11.674-14.071,18.696-32.14,18.703-51.851c0.015-44.902-36.372-81.315-81.274-81.331c-44.902-0.015-81.315,36.372-81.331,81.274
			c-0.007,19.465,6.831,37.331,18.233,51.332L411.781,314.207z"/>
		<path style="fill:#263238;" d="M435.301,284.832c20.895,6.617,33.87,26.035,37.255,31.641l-0.304,138.198h6.013L477.36,333.45
			c4.555-6.898,17.591-24.11,37.721-30.261c0,0-23.909,5.671-37.87,24.723l-0.782-29.022c3.44-5.514,16.907-25.064,38.652-31.708
			c0,0-25.006,5.927-38.805,26.034l-0.788-29.248l0.056,0.39c0,0,14.12-25.416,39.537-33.182c0,0-26.168,6.21-39.736,27.456
			l-1.919-39.367l-0.595,56.428c-13.297-20.211-37.53-26.161-37.53-26.161c21.404,6.778,34.503,26.996,37.49,32.033l-0.196,29.086
			C459.252,290.72,435.301,284.832,435.301,284.832z"/>
		<path style="fill:#263238;" d="M435.301,284.832c20.895,6.617,33.87,26.035,37.255,31.641l-0.304,138.198h6.013L477.36,333.45
			c4.555-6.898,17.591-24.11,37.721-30.261c0,0-23.909,5.671-37.87,24.723l-0.782-29.022c3.44-5.514,16.907-25.064,38.652-31.708
			c0,0-25.006,5.927-38.805,26.034l-0.788-29.248l0.056,0.39c0,0,14.12-25.416,39.537-33.182c0,0-26.168,6.21-39.736,27.456
			l-1.919-39.367l-0.595,56.428c-13.297-20.211-37.53-26.161-37.53-26.161c21.404,6.778,34.503,26.996,37.49,32.033l-0.196,29.086
			C459.252,290.72,435.301,284.832,435.301,284.832z"/>
	</g>
	<g>
		<path style="fill:#92E3A9;" d="M43.254,314.207c0,0,41.828,4.139,63.029,30.068c0,0,22.398-30.039,62.627-29.423
			c11.674-14.071,18.696-32.14,18.703-51.851c0.015-44.902-36.372-81.315-81.275-81.331c-44.902-0.015-81.315,36.372-81.331,81.274
			c-0.007,19.465,6.831,37.331,18.233,51.332L43.254,314.207z"/>
		<path style="opacity:0.4;fill:#FFFFFF;" d="M43.254,314.207c0,0,41.828,4.139,63.029,30.068c0,0,22.398-30.039,62.627-29.423
			c11.674-14.071,18.696-32.14,18.703-51.851c0.015-44.902-36.372-81.315-81.275-81.331c-44.902-0.015-81.315,36.372-81.331,81.274
			c-0.007,19.465,6.831,37.331,18.233,51.332L43.254,314.207z"/>
		<path style="fill:#263238;" d="M66.774,284.832c20.895,6.617,33.87,26.035,37.256,31.641l-0.304,138.198h6.013l-0.905-121.222
			c4.555-6.898,17.591-24.11,37.721-30.261c0,0-23.909,5.671-37.87,24.723l-0.782-29.022c3.44-5.514,16.907-25.064,38.652-31.708
			c0,0-25.006,5.927-38.805,26.034l-0.788-29.248l0.056,0.39c0,0,14.12-25.416,39.537-33.182c0,0-26.168,6.21-39.736,27.456
			l-1.919-39.367l-0.595,56.428c-13.297-20.211-37.53-26.161-37.53-26.161c21.404,6.778,34.503,26.996,37.491,32.033l-0.196,29.086
			C90.724,290.72,66.774,284.832,66.774,284.832z"/>
		<path style="fill:#263238;" d="M66.774,284.832c20.895,6.617,33.87,26.035,37.256,31.641l-0.304,138.198h6.013l-0.905-121.222
			c4.555-6.898,17.591-24.11,37.721-30.261c0,0-23.909,5.671-37.87,24.723l-0.782-29.022c3.44-5.514,16.907-25.064,38.652-31.708
			c0,0-25.006,5.927-38.805,26.034l-0.788-29.248l0.056,0.39c0,0,14.12-25.416,39.537-33.182c0,0-26.168,6.21-39.736,27.456
			l-1.919-39.367l-0.595,56.428c-13.297-20.211-37.53-26.161-37.53-26.161c21.404,6.778,34.503,26.996,37.491,32.033l-0.196,29.086
			C90.724,290.72,66.774,284.832,66.774,284.832z"/>
	</g>
	<g>
		<path style="fill:#92E3A9;" d="M556.427,286.635c0,0,50.039,4.951,75.401,35.97c0,0,26.794-35.935,74.92-35.199
			c13.965-16.832,22.366-38.449,22.374-62.029c0.018-53.716-43.512-97.276-97.228-97.295c-53.716-0.018-97.276,43.512-97.295,97.227
			c-0.008,23.286,8.171,44.659,21.812,61.408L556.427,286.635z"/>
		<path style="opacity:0.4;fill:#FFFFFF;" d="M556.427,286.635c0,0,50.039,4.951,75.401,35.97c0,0,26.794-35.935,74.92-35.199
			c13.965-16.832,22.366-38.449,22.374-62.029c0.018-53.716-43.512-97.276-97.228-97.295c-53.716-0.018-97.276,43.512-97.295,97.227
			c-0.008,23.286,8.171,44.659,21.812,61.408L556.427,286.635z"/>
		<path style="fill:#263238;" d="M584.564,251.495c24.996,7.916,40.519,31.146,44.568,37.852l-0.364,165.325h7.193l-1.083-145.016
			c5.449-8.252,21.043-28.843,45.125-36.201c0,0-28.602,6.784-45.304,29.576l-0.935-34.719c4.115-6.596,20.226-29.983,46.239-37.932
			c0,0-29.914,7.091-46.422,31.144l-0.942-34.989l0.067,0.466c0,0,16.892-30.405,47.297-39.696c0,0-31.305,7.43-47.536,32.845
			l-2.295-47.095l-0.711,67.505c-15.907-24.178-44.897-31.296-44.897-31.296c25.605,8.108,41.275,32.295,44.849,38.321
			l-0.234,34.796C613.216,258.539,584.564,251.495,584.564,251.495z"/>
		<path style="fill:#263238;" d="M584.564,251.495c24.996,7.916,40.519,31.146,44.568,37.852l-0.364,165.325h7.193l-1.083-145.016
			c5.449-8.252,21.043-28.843,45.125-36.201c0,0-28.602,6.784-45.304,29.576l-0.935-34.719c4.115-6.596,20.226-29.983,46.239-37.932
			c0,0-29.914,7.091-46.422,31.144l-0.942-34.989l0.067,0.466c0,0,16.892-30.405,47.297-39.696c0,0-31.305,7.43-47.536,32.845
			l-2.295-47.095l-0.711,67.505c-15.907-24.178-44.897-31.296-44.897-31.296c25.605,8.108,41.275,32.295,44.849,38.321
			l-0.234,34.796C613.216,258.539,584.564,251.495,584.564,251.495z"/>
	</g>
</g>
<g id="Clouds">
	<g>
		<path style="fill:none;stroke:#B2B2B2;stroke-linecap:round;stroke-linejoin:round;stroke-miterlimit:10;" d="M404.159,55.997
			c-0.219-0.674-0.445-1.352-0.69-2.031c-9.011-25.057-50.931-26.785-50.932,4.01c0,5.931-14.235,0-19.573,7.71
			c-5.338,7.71,0.593,12.455-6.524,14.828c-7.117,2.372-7.71-3.559-16.607-2.965c-8.897,0.593-7.711,8.897-10.676,11.269
			s-2.966,1.186-9.49,1.779c-6.524,0.593-7.71,5.338-7.71,5.338h155.99c0,0,5.931-17.793-4.745-24.318
			c-10.676-6.524-10.676,2.372-18.98-1.186C407.362,67.492,406.077,61.911,404.159,55.997z"/>
		<path style="fill:none;stroke:#B2B2B2;stroke-linecap:round;stroke-linejoin:round;stroke-miterlimit:10;" d="M409.553,89.446
			c0,0,3.231-9.988-4.7-17.331c-7.931-7.344-16.156-3.232-18.507,0c-2.35,3.231-2.35,9.4-6.169,9.988
			c-3.819,0.588-2.938-6.463-11.163-4.7c-8.225,1.762-4.994,9.988-8.813,11.75c-3.819,1.762-3.819-4.7-9.106-2.644
			c-5.288,2.056-4.994,5.875-4.994,5.875"/>
		<path style="fill:none;stroke:#B2B2B2;stroke-linecap:round;stroke-linejoin:round;stroke-miterlimit:10;" d="M367.361,69.49
			c0,0-6.541-5.233-15.045-1.308c-8.504,3.925-4.579,12.102-8.504,14.064c-3.925,1.962-5.887-0.327-10.793,1.962
			c-4.906,2.29-4.579,5.56-4.579,5.56"/>
	</g>
	<g>
		<path style="fill:none;stroke:#B2B2B2;stroke-linecap:round;stroke-linejoin:round;stroke-miterlimit:10;" d="M225.959,100.18
			c-0.095-0.293-0.194-0.588-0.3-0.884c-3.92-10.901-22.158-11.653-22.158,1.745c0,2.58-6.193,0-8.515,3.355
			c-2.322,3.354,0.258,5.419-2.838,6.451c-3.097,1.032-3.355-1.548-7.225-1.29c-3.871,0.258-3.355,3.871-4.645,4.903
			c-1.29,1.032-1.29,0.516-4.129,0.774c-2.838,0.258-3.355,2.322-3.355,2.322h67.865c0,0,2.58-7.741-2.064-10.58
			s-4.645,1.032-8.258-0.516C227.353,105.181,226.794,102.754,225.959,100.18z"/>
		<path style="fill:none;stroke:#B2B2B2;stroke-linecap:round;stroke-linejoin:round;stroke-miterlimit:10;" d="M228.306,114.733
			c0,0,1.406-4.345-2.045-7.54c-3.451-3.195-7.029-1.406-8.051,0c-1.022,1.406-1.022,4.09-2.684,4.345
			c-1.661,0.256-1.278-2.812-4.857-2.045c-3.578,0.767-2.173,4.345-3.834,5.112c-1.661,0.767-1.661-2.045-3.962-1.15
			c-2.3,0.895-2.173,2.556-2.173,2.556"/>
		<path style="fill:none;stroke:#B2B2B2;stroke-linecap:round;stroke-linejoin:round;stroke-miterlimit:10;" d="M209.95,106.051
			c0,0-2.846-2.277-6.545-0.569c-3.7,1.707-1.992,5.265-3.7,6.119c-1.707,0.854-2.561-0.142-4.696,0.854
			c-2.134,0.996-1.992,2.419-1.992,2.419"/>
	</g>
	<g>
		<path style="fill:none;stroke:#B2B2B2;stroke-linecap:round;stroke-linejoin:round;stroke-miterlimit:10;" d="M574.513,98.863
			c-0.095-0.293-0.194-0.588-0.3-0.884c-3.92-10.901-22.158-11.653-22.159,1.745c0,2.58-6.193,0-8.515,3.355
			c-2.322,3.354,0.258,5.419-2.838,6.451c-3.097,1.032-3.355-1.548-7.225-1.29c-3.871,0.258-3.355,3.871-4.645,4.903
			c-1.29,1.032-1.29,0.516-4.129,0.774c-2.838,0.258-3.354,2.322-3.354,2.322h67.865c0,0,2.58-7.741-2.064-10.58
			c-4.645-2.838-4.645,1.032-8.258-0.516C575.906,103.864,575.348,101.437,574.513,98.863z"/>
		<path style="fill:none;stroke:#B2B2B2;stroke-linecap:round;stroke-linejoin:round;stroke-miterlimit:10;" d="M576.86,113.416
			c0,0,1.406-4.345-2.045-7.54c-3.451-3.195-7.029-1.406-8.051,0c-1.022,1.406-1.022,4.09-2.684,4.345
			c-1.661,0.256-1.278-2.812-4.857-2.045s-2.172,4.345-3.834,5.112c-1.661,0.767-1.661-2.045-3.962-1.15
			c-2.3,0.895-2.173,2.556-2.173,2.556"/>
		<path style="fill:none;stroke:#B2B2B2;stroke-linecap:round;stroke-linejoin:round;stroke-miterlimit:10;" d="M558.504,104.733
			c0,0-2.846-2.277-6.545-0.569c-3.7,1.707-1.992,5.265-3.7,6.119c-1.707,0.854-2.561-0.142-4.696,0.854
			c-2.135,0.996-1.992,2.419-1.992,2.419"/>
	</g>
</g>
<g id="Character_3">
	<g>
		<path style="fill:#FFFFFF;stroke:#263238;stroke-linecap:round;stroke-linejoin:round;stroke-miterlimit:10;" d="M495.285,422.498
			c0,0-3.788,19.888-4.025,21.072c-0.237,1.184-1.421,10.891-1.421,10.891l18.231-0.237l-1.894-15.153l4.735-13.733L495.285,422.498
			z"/>
		<path style="fill:#92E3A9;stroke:#263238;stroke-linecap:round;stroke-linejoin:round;stroke-miterlimit:10;" d="M517.778,332.526
			c0,0-24.15,77.66-25.097,83.106c-0.947,5.446-0.71,7.577-0.71,7.577l21.072,5.209l7.813-19.652l0.237-82.159L517.778,332.526z"/>
		<polygon style="fill:#263238;stroke:#263238;stroke-linecap:round;stroke-linejoin:round;stroke-miterlimit:10;" points="
			512.128,454.672 516.752,417.87 614.526,419.233 617.137,454.479 		"/>
		<path style="fill:#92E3A9;stroke:#263238;stroke-linecap:round;stroke-linejoin:round;stroke-miterlimit:10;" d="M516.024,415.856
			l-0.53,10.073c0,0,11.26,9.547,45.188,9.283c33.928-0.265,45.198-4.511,48.644-5.572c3.446-1.06,5.831-2.386,5.831-4.771
			s-1.325-8.747-1.325-8.747s-30.747,3.976-54.073,4.771C536.434,421.688,516.024,415.856,516.024,415.856z"/>
		<path style="fill:#92E3A9;stroke:#263238;stroke-linecap:round;stroke-linejoin:round;stroke-miterlimit:10;" d="M550.855,256.782
			c0,0-19.386,13.151-20.64,17.416c-1.255,4.266-14.554,44.916-13.801,50.687c0.753,5.771,1.255,22.834,1.255,22.834
			s-6.022,65.993-4.015,69.757c2.007,3.764,23.587,9.786,54.953,8.782c31.366-1.004,44.665-5.771,45.919-7.026
			c1.255-1.255,2.76-3.513,2.258-7.528c-0.502-4.015-0.502-30.111-0.502-30.111l19.07-7.026c0,0-8.531-104.134-11.793-109.654
			c-3.262-5.52-30.864-13.801-35.13-13.55C584.164,251.615,550.855,256.782,550.855,256.782z"/>
		<g>
			
				<line style="fill:#FFFFFF;stroke:#263238;stroke-linecap:round;stroke-linejoin:round;stroke-miterlimit:10;" x1="538.136" y1="338.325" x2="561.555" y2="352.767"/>
			
				<line style="fill:#FFFFFF;stroke:#263238;stroke-linecap:round;stroke-linejoin:round;stroke-miterlimit:10;" x1="530.171" y1="333.413" x2="535.605" y2="336.764"/>
			
				<line style="fill:#FFFFFF;stroke:#263238;stroke-linecap:round;stroke-linejoin:round;stroke-miterlimit:10;" x1="568.155" y1="353.203" x2="570.97" y2="354.859"/>
			
				<line style="fill:#FFFFFF;stroke:#263238;stroke-linecap:round;stroke-linejoin:round;stroke-miterlimit:10;" x1="553.186" y1="344.398" x2="564.714" y2="351.179"/>
		</g>
		<g>
			<path style="fill:#FFFFFF;stroke:#263238;stroke-linecap:round;stroke-linejoin:round;stroke-miterlimit:10;" d="
				M536.456,175.188c0,0-3.84,15.935-3.84,17.663c0,1.728,1.344,5.568,1.152,6.527c-0.192,0.96-10.751,11.519-9.407,13.055
				c1.344,1.536,4.608,6.336,4.608,6.336s4.608,20.159,6.336,20.159s16.319-3.456,16.319-3.456l-0.768,21.311l-4.032,4.032
				c0,0-2.496,22.846,0.576,22.463c3.072-0.384,42.237-29.182,42.813-30.718c0.576-1.536-0.384-2.496-1.536-3.072
				c-1.152-0.576-4.032-5.376-4.032-5.376s-1.92-23.806-1.92-24.382c0-0.576,4.8-21.118,5.184-21.695
				c0.384-0.576,2.688-10.751-13.247-18.047c-15.935-7.296-34.558-9.215-36.094-8.64
				C537.032,171.924,536.456,175.188,536.456,175.188z"/>
			<polygon style="fill:#263238;stroke:#263238;stroke-linecap:round;stroke-linejoin:round;stroke-miterlimit:10;" points="
				551.623,235.471 561.766,233.896 552.012,244.695 			"/>
			<path style="fill:#263238;stroke:#263238;stroke-linecap:round;stroke-linejoin:round;stroke-miterlimit:10;" d="
				M533.961,219.345c0,0,5.952,0.576,9.983-3.648c0,0-0.192,7.296-2.88,8.256C538.376,224.912,533.961,219.345,533.961,219.345z"/>
			<path style="fill:none;stroke:#263238;stroke-linecap:round;stroke-linejoin:round;stroke-miterlimit:10;" d="M540.104,197.458"
				/>
			<path style="fill:#263238;" d="M539.72,198.802c0,1.272-0.473,2.304-1.056,2.304c-0.583,0-1.056-1.032-1.056-2.304
				c0-1.272,0.473-2.304,1.056-2.304C539.247,196.498,539.72,197.53,539.72,198.802z"/>
			<path style="fill:none;stroke:#263238;stroke-linecap:round;stroke-linejoin:round;stroke-miterlimit:10;" d="M536.073,190.942
				c0,0,2.745-1.995,7.487,0"/>
			<path style="fill:#263238;stroke:#263238;stroke-linecap:round;stroke-linejoin:round;stroke-miterlimit:10;" d="M558.409,152.2
				c0,0-9.512-6.751-16.57-6.751s-12.581,5.217-12.581,9.206c0,3.989,1.534,7.057-0.307,8.592c-1.841,1.534-6.137-3.068-8.592,3.375
				c-2.455,6.444,7.978,12.888,10.126,13.502c2.148,0.614,5.523-3.989,7.365-2.455c1.841,1.534,2.762,4.91,7.364,4.91
				c4.603,0,8.899-3.682,10.126-1.841s-1.841,7.364,0.307,8.899c2.148,1.534,6.444,5.216,6.444,5.216s-2.148,5.83-0.614,6.444
				c1.534,0.614,1.534,0.614,1.534,0.614s2.762-6.444,6.751-5.83c3.989,0.614,5.216,2.148,5.216,8.899
				c0,6.751-7.364,9.206-7.364,9.206s7.057,8.285,9.206,8.899c2.148,0.614,5.523,2.762,6.751,0.614
				c1.227-2.148,7.978-15.343,9.206-16.877c1.227-1.534,10.126-1.841,11.967-8.899c1.841-7.058-3.375-10.433-1.227-12.581
				c2.148-2.148,11.047-3.069,8.285-12.581c-2.762-9.512-10.126-10.126-12.888-11.047c-2.762-0.921-6.137-7.978-10.433-9.819
				c-4.296-1.841-6.751-0.614-7.671-0.307c-0.921,0.307-1.534-4.296-10.433-3.375C561.477,149.132,558.409,152.2,558.409,152.2z"/>
			<g>
				<g>
					<path style="fill:#263238;" d="M537.078,206.527c-2.425,0-5.376-0.92-6.372-2.082c-1.313-1.532-2.194-9.491-1.33-11.995
						c0.333-0.962,0.9-1.264,1.317-1.347c0.254-0.051,0.932-0.186,11.24,0.431c0.811,0.048,1.57,0.435,2.085,1.06
						c0.516,0.626,0.75,1.447,0.643,2.253v0.001c-0.24,1.796-0.57,4.24-0.687,5.056c-0.226,1.585-2.262,4.952-4.345,6.108
						C538.984,206.371,538.075,206.527,537.078,206.527z M531.276,193.053c-0.57,1.367-0.089,8.755,0.95,10.093
						c0.843,0.983,5.089,1.861,6.433,1.117c1.411-0.784,3.184-3.583,3.335-4.643c0.116-0.813,0.444-3.249,0.685-5.039l0,0
						c0.035-0.261-0.037-0.516-0.203-0.717c-0.165-0.201-0.4-0.32-0.661-0.335C535.287,193.139,532.152,193.028,531.276,193.053z"/>
				</g>
				<polygon style="fill:#263238;stroke:#263238;stroke-linecap:round;stroke-linejoin:round;stroke-miterlimit:10;" points="
					543.669,194.714 566.022,197.65 564.103,199.378 549.896,198.226 547.4,199.378 542.984,199.762 				"/>
			</g>
		</g>
		<g>
			<path style="fill:#FFFFFF;stroke:#263238;stroke-linecap:round;stroke-linejoin:round;stroke-miterlimit:10;" d="
				M515.484,358.503c0,0-7.452-7.61-6.183-8.562c1.268-0.951,3.488-0.951,4.915,0.634c1.427,1.586,9.037,10.781,9.037,10.781
				L515.484,358.503z"/>
			<path style="fill:#FFFFFF;stroke:#263238;stroke-linecap:round;stroke-linejoin:round;stroke-miterlimit:10;" d="
				M525.156,365.479c0,0-7.769-3.805-9.354-4.756s-9.672-6.025-8.72-7.135c0.951-1.11,3.647-1.585,5.549,0.317
				c1.903,1.903,9.513,5.391,9.989,5.549c0.476,0.159,4.281,5.391,4.281,5.391L525.156,365.479z"/>
			<path style="fill:#FFFFFF;stroke:#263238;stroke-linecap:round;stroke-linejoin:round;stroke-miterlimit:10;" d="M565.11,365.32
				c0,0-10.94-4.439-11.733-4.915c-0.793-0.476-2.537-4.122-5.074-6.025c-2.537-1.903-5.549-2.378-8.086-3.33
				c-2.537-0.951-7.452-3.488-8.245-3.964c-0.793-0.476-3.964,1.903,0.317,5.232c4.281,3.329,7.452,5.708,7.452,5.708
				s-6.342,0.317-8.403,0.634c-2.061,0.317-6.5-0.159-7.135-0.951c-0.634-0.793-5.232-7.135-6.659-8.403
				c-1.427-1.268-4.598-1.744-5.232,0.317s1.744,1.903,5.391,6.976c3.647,5.074,8.562,11.891,11.098,11.733
				c2.537-0.158,21.246,1.903,21.246,1.903l16.648,7.61L565.11,365.32z"/>
		</g>
		<path style="fill:#92E3A9;stroke:#263238;stroke-linecap:round;stroke-linejoin:round;stroke-miterlimit:10;" d="M602.732,290.258
			c0,0-6.524,22.834-4.768,29.609c1.757,6.775,12.295,42.155,12.295,42.155s-35.631,0.753-39.897,0.753s-6.524,0.502-6.524,0.502
			l-0.251,22.081c0,0,30.864,8.03,51.189,6.022c20.325-2.007,32.871-5.019,33.624-8.532c0.753-3.513,0.502-7.528,0.502-7.528
			s-12.295-73.521-15.557-85.565c-3.262-12.044-6.775-25.845-9.535-27.853c-2.76-2.007-18.318-4.768-18.318-4.768"/>
	</g>
</g>
<g id="Speech_Bubble_3">
	<g>
		<path style="fill:#FFFFFF;stroke:#263238;stroke-linecap:round;stroke-linejoin:round;stroke-miterlimit:10;" d="M673.486,60.749
			h-83.565c-5.346,0-9.679,4.333-9.679,9.679v46.654c0,5.346,4.333,9.679,9.679,9.679h31.29l-7.557,20.026l18.62-20.026h41.211
			c5.346,0,9.679-4.334,9.679-9.679V70.428C683.165,65.082,678.832,60.749,673.486,60.749z"/>
		<g>
			<path style="fill:#263238;" d="M613.914,92.385c0-2.563-2.078-4.641-4.641-4.641c-2.563,0-4.641,2.078-4.641,4.641
				c0,2.563,2.078,4.641,4.641,4.641C611.836,97.026,613.914,94.948,613.914,92.385z"/>
			<path style="fill:#263238;" d="M636.345,92.385c0-2.563-2.078-4.641-4.641-4.641s-4.641,2.078-4.641,4.641
				c0,2.563,2.078,4.641,4.641,4.641S636.345,94.948,636.345,92.385z"/>
			<path style="fill:#263238;" d="M658.776,92.385c0-2.563-2.078-4.641-4.641-4.641s-4.641,2.078-4.641,4.641
				c0,2.563,2.078,4.641,4.641,4.641S658.776,94.948,658.776,92.385z"/>
		</g>
	</g>
</g>
<g id="Character_2">
	<g>
		<path style="fill:#263238;stroke:#263238;stroke-linecap:round;stroke-linejoin:round;stroke-miterlimit:10;" d="M444.678,454.672
			c0.259-4.753,0.59-12.326,0.257-15.15c-0.499-4.242-10.829-34.575-10.829-34.575l-119.691-0.113l-3.191,49.839H444.678z"/>
		<path style="fill:#FFFFFF;stroke:#263238;stroke-linecap:round;stroke-linejoin:round;stroke-miterlimit:10;" d="M442.69,408.078
			l-3.743,3.494l-7.237,5.99l13.227,21.961c0,0,5.241-5.49,5.99-7.736c0.749-2.246,2.496-8.984,2.496-8.984l1.497-3.494
			L442.69,408.078z"/>
		<g>
			<path style="fill:#92E3A9;stroke:#263238;stroke-linecap:round;stroke-linejoin:round;stroke-miterlimit:10;" d="M349.24,246.339
				c0,0-42.274,13.032-43.863,19.389c-1.589,6.357-25.746,71.835-25.746,71.835l38.46,4.132c0,0-8.582,64.524-6.993,66.431
				c1.589,1.907,53.399,3.814,62.935,4.132c9.536,0.318,58.803-5.086,60.074-7.311c1.271-2.225,0.954-7.311,0.954-7.311
				l-1.589-47.042l0.318-19.389l17.482,34.328c0,0,5.086,4.132,14.303,2.861c9.218-1.271,15.893-5.404,13.986-18.117
				c-1.907-12.714-27.017-70.881-29.878-79.463c-2.861-8.582-5.721-12.714-10.171-14.939c-4.45-2.225-47.678-13.032-47.678-13.032
				L349.24,246.339z"/>
			
				<line style="fill:#FFFFFF;stroke:#263238;stroke-linecap:round;stroke-linejoin:round;stroke-miterlimit:10;" x1="433.789" y1="331.205" x2="435.06" y2="288.931"/>
			
				<line style="fill:#FFFFFF;stroke:#263238;stroke-linecap:round;stroke-linejoin:round;stroke-miterlimit:10;" x1="435.06" y1="314.359" x2="439.192" y2="290.838"/>
			
				<line style="fill:none;stroke:#263238;stroke-linecap:round;stroke-linejoin:round;stroke-miterlimit:10;" x1="318.09" y1="341.694" x2="322.858" y2="284.481"/>
			
				<line style="fill:none;stroke:#263238;stroke-linecap:round;stroke-linejoin:round;stroke-miterlimit:10;" x1="319.998" y1="308.002" x2="316.501" y2="285.117"/>
		</g>
		<g>
			<path style="fill:#92E3A9;stroke:#263238;stroke-linecap:round;stroke-linejoin:round;stroke-miterlimit:10;" d="
				M349.558,236.803c0,0-9.536,7.628-9.218,9.218c0.318,1.589,0.318,8.582,3.814,10.171c3.496,1.589,25.746,19.071,25.746,19.071
				L349.558,236.803z"/>
			<g>
				<path style="fill:#FFFFFF;stroke:#263238;stroke-linecap:round;stroke-linejoin:round;stroke-miterlimit:10;" d="
					M345.421,210.563l4.773,39.272l19.707,25.428l23.521-34.964l0.318-24.475c0,0-2.225,7.311-15.893,6.675
					C364.179,221.864,345.421,210.563,345.421,210.563z"/>
				<polygon style="fill:#263238;stroke:#263238;stroke-linecap:round;stroke-linejoin:round;stroke-miterlimit:10;" points="
					369.844,231.503 349.558,236.803 344.657,206.635 				"/>
			</g>
			<path style="fill:#92E3A9;stroke:#263238;stroke-linecap:round;stroke-linejoin:round;stroke-miterlimit:10;" d="M369.9,275.263
				c0,0,6.993-22.568,7.629-25.746c0.636-3.178,16.846-15.893,16.846-15.893s3.178,0,3.178,3.178s0.318,6.993,0.318,6.993
				L369.9,275.263z"/>
		</g>
		<g>
			<path style="fill:#FFFFFF;stroke:#263238;stroke-linecap:round;stroke-linejoin:round;stroke-miterlimit:10;" d="
				M398.189,187.377c0,0,4.45-3.496,6.675,1.907c2.225,5.404-4.768,13.986-6.357,15.575c-1.589,1.589-1.589,1.589-1.589,1.589
				s-0.953-8.9-0.953-12.078C395.964,191.191,395.329,186.741,398.189,187.377z"/>
			<path style="fill:#FFFFFF;stroke:#263238;stroke-linecap:round;stroke-linejoin:round;stroke-miterlimit:10;" d="
				M338.125,192.122c0,0-4.768,0.632-4.772,4.764c-0.003,4.132,2.535,9.856,5.712,11.765c3.177,1.91,6.355,1.912,6.355,1.912
				s0.947,7.629,5.393,12.718c4.446,5.089,10.164,8.908,13.023,10.818s9.214,4.775,13.029,3.189
				c3.815-1.586,9.542-7.303,9.542-7.303s5.405-2.221,7.636-9.211c2.231-6.991,4.783-19.067,4.788-25.106
				s-1.578-13.351-1.894-15.258c-0.316-1.907-5.396-9.222-20.335-9.234c-14.939-0.012-27.021,4.745-29.249,8.24
				C345.126,182.91,338.125,192.122,338.125,192.122z"/>
			<path style="fill:#263238;stroke:#263238;stroke-linecap:round;stroke-linejoin:round;stroke-miterlimit:10;" d="M342.02,190.008
				l1.841,7.825c0,0,1.841,0.23,1.841-1.151c0-1.381-1.865-9.305-1.865-9.305L342.02,190.008z"/>
			<path style="fill:none;stroke:#263238;stroke-linecap:round;stroke-linejoin:round;stroke-miterlimit:10;" d="M368.945,206.133
				c0,0-0.32,2.543,3.176,3.499c3.496,0.956,8.582,0.007,9.219-1.899s-0.315-4.132-0.315-4.132"/>
			<path style="fill:none;stroke:#263238;stroke-linecap:round;stroke-linejoin:round;stroke-miterlimit:10;" d="M364.807,214.393
				c0,0,9.214,4.775,19.39-1.573"/>
			<ellipse style="fill:#263238;" cx="364.338" cy="194.529" rx="2.066" ry="3.02"/>
			<path style="fill:#263238;" d="M387.859,194.529c0,1.668-0.925,3.02-2.066,3.02c-1.141,0-2.066-1.352-2.066-3.02
				c0-1.668,0.925-3.02,2.066-3.02C386.934,191.509,387.859,192.861,387.859,194.529z"/>
			<path style="fill:none;stroke:#263238;stroke-width:2;stroke-linecap:round;stroke-linejoin:round;stroke-miterlimit:10;" d="
				M357.186,189.92c0,0,4.45-4.45,11.761-2.861"/>
			<path style="fill:none;stroke:#263238;stroke-width:2;stroke-linecap:round;stroke-linejoin:round;stroke-miterlimit:10;" d="
				M381.025,186.424c0,0,5.721-1.907,11.125,2.225"/>
			<path style="fill:#263238;stroke:#263238;stroke-linecap:round;stroke-linejoin:round;stroke-miterlimit:10;" d="
				M343.837,187.377c0,0-3.179,4.768-5.721,4.768c-2.543,0-11.125-6.675-11.76-12.396c-0.636-5.721,12.396-10.171,17.164-17.164
				c4.768-6.993,17.482-18.753,27.653-16.846c10.171,1.907,16.846,13.032,23.203,14.939c6.357,1.907,16.528,8.264,15.575,14.621
				c-0.954,6.357-3.496,9.218-6.039,9.536c-2.543,0.318-5.721-1.589-5.721-1.589s-8.9-10.489-21.614-12.078
				c-12.714-1.589-17.164,1.589-21.614,6.357C350.511,182.292,343.837,187.377,343.837,187.377z"/>
			<path style="fill:#595959;stroke:#263238;stroke-linecap:round;stroke-linejoin:round;stroke-miterlimit:10;" d="
				M343.837,187.377c0,0,4.45,2.225,9.853-0.954c5.403-3.179,8.582-11.443,21.932-9.218c13.35,2.225,14.939,6.675,18.117,7.311
				s4.45,0.318,3.178-4.132c-1.271-4.45-12.396-12.396-23.521-13.032C362.272,166.717,344.472,177.842,343.837,187.377z"/>
		</g>
		<path style="fill:#FFFFFF;stroke:#263238;stroke-linecap:round;stroke-linejoin:round;stroke-miterlimit:10;" d="M340.77,314.386
			c0,0,3.857-11.472,5.022-12.842s8.59-4.201,8.59-4.201l4.878-2.162c0.677-0.3,1.462,0.093,1.637,0.812
			c0.53,2.177,0.355,2.586-0.898,3.766c-1.482,1.395-7.322,4.099-7.322,4.099l10.801-2.352l17.949-3.7
			c0.801-0.165,1.567,0.405,1.638,1.22l0.002,0.022c0.06,0.747-15.121,6.606-15.121,6.606l0.245,1.483l12.059-1.099l5.089-0.785
			c0.968-0.149,1.889,0.47,2.115,1.423l0,0c0.208,0.876-0.231,1.775-1.052,2.146c-1.817,0.821-4.783,2.155-5.118,2.268
			c-0.488,0.165-11.959,2.343-11.959,2.343l6.537,1.852l11.091-0.103c0.649-0.006,1.18,0.514,1.189,1.162l0,0
			c0.006,0.435-0.223,0.836-0.605,1.046c-1.096,0.604-3.385,1.83-4.565,2.204c-1.587,0.504-7.022,1.443-8.381,1.678
			c-1.359,0.235-5.972,0.482-6.346,0.512c-0.373,0.03,7.99,1.234,8.373,1.328s5.037,0.345,4.953,0.853
			c-0.084,0.508,0.1,1.244-0.75,1.563c-0.851,0.319-4.21,0.59-7.6,0.488c-3.39-0.102-7.899-0.114-7.899-0.114
			s-9.157,1.365-12.89,1.667c-3.733,0.301-8.784,1.335-8.784,1.335l-6.911,2.812l-2.967-15.039L340.77,314.386z"/>
		<path style="fill:#92E3A9;stroke:#263238;stroke-linecap:round;stroke-linejoin:round;stroke-miterlimit:10;" d="M338.374,314.991
			l3.743,16.97c0,0-47.167,35.438-47.916,35.438c-0.749,0-5.74,0.749-11.979-4.742c-6.239-5.49-7.736-13.227-6.738-18.218
			c0.998-4.991,5.989-11.23,8.485-13.476C286.465,328.717,338.374,314.991,338.374,314.991z"/>
		<path style="fill:#92E3A9;stroke:#263238;stroke-linecap:round;stroke-linejoin:round;stroke-miterlimit:10;" d="M464.152,352.176
			c0,0-8.984,7.487-10.981,10.981c-1.996,3.494-12.228,45.919-12.228,45.919l15.722,13.726l8.236-11.23
			c0,0,19.216-43.174,19.965-46.169c0.749-2.995-2.995-14.225-6.988-19.715"/>
	</g>
</g>
<g id="Speech_Bubble_2">
	<g>
		<path style="fill:#FFFFFF;stroke:#263238;stroke-linecap:round;stroke-linejoin:round;stroke-miterlimit:10;" d="M482.694,87.887
			h-83.565c-5.346,0-9.679,4.334-9.679,9.679v46.654c0,5.346,4.333,9.679,9.679,9.679h31.29l-7.557,20.026l18.62-20.026h41.211
			c5.346,0,9.679-4.334,9.679-9.679V97.566C492.373,92.22,488.04,87.887,482.694,87.887z"/>
		<g>
			<path style="fill:#263238;" d="M423.757,120.95c0-2.563-2.078-4.641-4.641-4.641c-2.563,0-4.641,2.078-4.641,4.641
				c0,2.563,2.078,4.641,4.641,4.641C421.679,125.591,423.757,123.513,423.757,120.95z"/>
			<path style="fill:#263238;" d="M446.188,120.95c0-2.563-2.078-4.641-4.641-4.641c-2.563,0-4.641,2.078-4.641,4.641
				c0,2.563,2.078,4.641,4.641,4.641C444.11,125.591,446.188,123.513,446.188,120.95z"/>
			<path style="fill:#263238;" d="M468.619,120.95c0-2.563-2.078-4.641-4.641-4.641c-2.563,0-4.641,2.078-4.641,4.641
				c0,2.563,2.078,4.641,4.641,4.641C466.542,125.591,468.619,123.513,468.619,120.95z"/>
		</g>
	</g>
</g>
<g id="Character_1">
	<g>
		<path style="fill:#263238;stroke:#263238;stroke-linecap:round;stroke-linejoin:round;stroke-miterlimit:10;" d="M163.663,147.141
			c0,0-26.802,18.211-27.145,24.396c-0.344,6.185-1.031,23.365-4.467,26.458c-3.436,3.092-9.965,8.247-9.965,12.026
			s1.374,8.59,1.374,10.308c0,1.718-4.123,4.811-4.467,8.59c-0.344,3.78,2.062,10.995,2.062,13.057c0,2.062-5.498,5.498-6.185,8.247
			c-0.687,2.749,1.031,4.467-0.687,7.216c-1.718,2.749-5.154,7.216-5.154,7.216s6.185,7.559,27.832,10.996
			c21.647,3.436,52.916,4.467,65.973,1.718c13.057-2.749,38.141-19.586,38.141-19.586s-2.405-1.374-2.405-5.154
			s4.81-9.621,2.405-14.088c-2.405-4.467-7.903-4.811-7.903-11.339c0-6.529,2.405-5.498,0-10.308
			c-2.405-4.811-7.559-5.498-8.247-9.278c-0.687-3.78,3.78-8.59,1.031-14.432s-8.59-9.965-9.621-12.714
			c-1.031-2.749,2.062-10.308-1.374-14.775s-27.145-18.211-35.048-19.929C171.91,144.048,163.663,147.141,163.663,147.141z"/>
		<g>
			<path style="fill:#FFFFFF;stroke:#263238;stroke-linecap:round;stroke-linejoin:round;stroke-miterlimit:10;" d="
				M208.068,216.148c-2.556,16.38-15.854,27.626-15.854,27.626v8.7l-9.917-1.165l-24.874-2.928v-21.998c0,0-2.051,0-5.113-0.515
				c-3.072-0.505-6.659-6.133-3.587-16.875c3.072-10.752,8.7,2.041,8.7,2.041s2.041,0.515,9.205-13.298
				c7.164-13.813,10.741-32.749,10.741-32.749l27.121,14.844C204.491,179.832,210.624,199.778,208.068,216.148z"/>
			<path style="fill:none;stroke:#263238;stroke-linecap:round;stroke-linejoin:round;stroke-miterlimit:10;" d="M195.889,194.821
				c0,0-1.66,4.743-1.66,6.166s3.794,17.075,4.269,18.023c0.474,0.949-9.249,2.371-9.249,2.371"/>
			<path style="fill:none;stroke:#263238;stroke-linecap:round;stroke-linejoin:round;stroke-miterlimit:10;" d="M198.26,225.176
				c0,0-9.723,3.794-15.415-1.897"/>
			<path style="fill:none;stroke:#263238;stroke-linecap:round;stroke-linejoin:round;stroke-miterlimit:10;" d="M185.691,191.026
				c0,0-8.3-1.423-12.569,3.794"/>
			<path style="fill:none;stroke:#263238;stroke-linecap:round;stroke-linejoin:round;stroke-miterlimit:10;" d="M198.023,191.501
				c0,0,5.929-1.66,8.3,2.134"/>
			<path style="fill:#263238;" d="M182.377,202.051c0,2.003-0.937,3.627-2.093,3.627s-2.093-1.624-2.093-3.627
				c0-2.003,0.937-3.627,2.093-3.627S182.377,200.048,182.377,202.051z"/>
			<path style="fill:#263238;" d="M204.279,202.051c0,2.003-0.937,3.627-2.093,3.627s-2.093-1.624-2.093-3.627
				c0-2.003,0.937-3.627,2.093-3.627S204.279,200.048,204.279,202.051z"/>
			<path style="fill:#263238;stroke:#263238;stroke-linecap:round;stroke-linejoin:round;stroke-miterlimit:10;" d="
				M192.214,243.774v8.7l-9.917-1.165c-7.36-6.216-14.174-17.4-14.679-18.235C175.999,245.578,192.214,243.774,192.214,243.774z"/>
		</g>
		<g>
			<path style="fill:#FFFFFF;stroke:#263238;stroke-linecap:round;stroke-linejoin:round;stroke-miterlimit:10;" d="
				M220.928,271.423c0,0,28.466,102.844,30.527,113.152c2.062,10.308,7.216,56.18,7.216,56.18l1.546,13.401h-17.009l3.608-19.586
				l-20.101-67.004c0,0-7.216-49.48-7.731-63.396C218.469,290.254,220.928,271.423,220.928,271.423z"/>
			<path style="fill:#92E3A9;stroke:#263238;stroke-linecap:round;stroke-linejoin:round;stroke-miterlimit:10;" d="
				M220.928,271.423c0,0-2.459,18.831-1.944,32.747c0.515,13.916,7.731,63.396,7.731,63.396l7.918,26.392l17.9-2.826
				c-0.408-2.776-0.777-5.049-1.078-6.557C249.394,374.267,220.928,271.423,220.928,271.423z"/>
		</g>
		<g>
			<polygon style="fill:#FFFFFF;stroke:#263238;stroke-linecap:round;stroke-linejoin:round;stroke-miterlimit:10;" points="
				156.619,269.638 181.359,296.439 200.429,269.122 190.121,261.907 162.288,260.36 			"/>
			<polygon style="fill:#C9C9C9;stroke:#263238;stroke-linecap:round;stroke-linejoin:round;stroke-miterlimit:10;" points="
				188.575,266.545 205.068,271.184 229.292,415.5 233.416,454.672 123.632,454.672 136.002,277.369 158.852,263.968 			"/>
			<g>
				
					<line style="fill:none;stroke:#263238;stroke-linecap:round;stroke-linejoin:round;stroke-miterlimit:10;" x1="165.896" y1="331.488" x2="204.553" y2="333.034"/>
				
					<line style="fill:none;stroke:#263238;stroke-linecap:round;stroke-linejoin:round;stroke-miterlimit:10;" x1="185.998" y1="332.003" x2="184.451" y2="353.135"/>
				
					<line style="fill:none;stroke:#263238;stroke-linecap:round;stroke-linejoin:round;stroke-miterlimit:10;" x1="190.121" y1="333.549" x2="189.605" y2="372.205"/>
				
					<line style="fill:none;stroke:#263238;stroke-linecap:round;stroke-linejoin:round;stroke-miterlimit:10;" x1="194.244" y1="344.373" x2="195.275" y2="363.959"/>
			</g>
		</g>
		<g>
			<path style="fill:#92E3A9;stroke:#263238;stroke-linecap:round;stroke-linejoin:round;stroke-miterlimit:10;" d="
				M149.575,262.594c0,0-25.084,13.401-26.114,17.868c-1.031,4.467-13.229,60.819-13.229,61.85c0,1.031,12.198,32.987,12.198,32.987
				l-2.531,50.253c0,0,12.37,2.749,19.929,2.405c7.559-0.344,18.898-1.031,18.898-1.031l1.843-164.332H149.575z"/>
			
				<line style="fill:none;stroke:#263238;stroke-linecap:round;stroke-linejoin:round;stroke-miterlimit:10;" x1="133.941" y1="358.805" x2="138.579" y2="318.087"/>
		</g>
		<g>
			<path style="fill:#FFFFFF;stroke:#263238;stroke-linecap:round;stroke-linejoin:round;stroke-miterlimit:10;" d="M134.113,352.62
				l-26.458-65.629c0,0-3.78-10.308-6.872-13.057c-3.092-2.749-6.529-4.81-8.59-6.872c-2.062-2.062-2.405-6.872-3.78-1.718
				c-1.374,5.154,4.123,8.934,4.123,8.934l3.436,5.841l-21.991-4.123c0,0-11.339-5.498-12.37-3.092
				c-1.031,2.405,4.811,4.467,9.621,8.247c4.81,3.78,7.559,7.216,15.462,9.965c7.903,2.749,14.088,8.247,14.088,8.247
				s1.718,69.753,5.841,72.845c4.123,3.092,18.211,11.339,23.366,4.467C135.143,369.8,135.143,363.615,134.113,352.62z"/>
			<path style="fill:#92E3A9;stroke:#263238;stroke-linecap:round;stroke-linejoin:round;stroke-miterlimit:10;" d="M134.113,352.62
				l-4.269-10.589l-26.641,8.968c0.876,11.242,2.007,20.146,3.422,21.207c4.123,3.092,18.211,11.339,23.366,4.467
				C135.143,369.8,135.143,363.615,134.113,352.62z"/>
			<path style="fill:#FFFFFF;stroke:#263238;stroke-linecap:round;stroke-linejoin:round;stroke-miterlimit:10;" d="M82.95,287.976
				c0,0-9.079-5.502-10.729-8.253c-1.651-2.751-7.428-13.48-5.502-13.755c1.926-0.275,7.043,7.58,7.153,8.803
				c0.109,1.223,5.777,6.603,5.777,6.603"/>
			<path style="fill:#FFFFFF;stroke:#263238;stroke-linecap:round;stroke-linejoin:round;stroke-miterlimit:10;" d="M83.775,290.177
				c0,0-3.576-2.201-5.777-7.153c-2.201-4.952-4.677-11.83-4.677-15.681s2.201-2.476,3.026,0.275
				c0.825,2.751,3.576,9.354,4.677,10.729c1.1,1.376,4.952,6.878,4.952,6.878"/>
			<path style="fill:#FFFFFF;stroke:#263238;stroke-linecap:round;stroke-linejoin:round;stroke-miterlimit:10;" d="
				M104.959,292.928c-0.275-0.825-3.852-6.603-4.952-6.878c-1.1-0.275-8.528,1.651-8.528,1.651l-4.952-3.852
				c0,0-0.275-8.253-0.275-11.279c0-3.026-4.127,4.402-4.402,9.354c-0.275,4.952,3.576,10.179,3.576,10.179s4.402,0.825,5.227,1.1
				c0.825,0.275,10.129,6.157,10.129,6.157"/>
		</g>
		<polygon style="fill:#858585;stroke:#263238;stroke-linecap:round;stroke-linejoin:round;stroke-miterlimit:10;" points="
			150.949,262.594 147.513,363.272 162.288,362.928 158.852,263.968 		"/>
		<polygon style="fill:#858585;stroke:#263238;stroke-linecap:round;stroke-linejoin:round;stroke-miterlimit:10;" points="
			150.949,262.594 157.822,371.175 179.125,370.831 165.037,263.625 		"/>
		<path style="fill:#92E3A9;stroke:#263238;stroke-linecap:round;stroke-linejoin:round;stroke-miterlimit:10;" d="M195.79,267.576
			l0.134,1.94l10.69,154.746l28.359-1.852l-7.742-71.853c0,0-4.757-78.104-6.303-79.135c-1.546-1.031-25.137-6.424-25.137-6.424
			V267.576z"/>
		<path style="fill:#858585;stroke:#263238;stroke-linecap:round;stroke-linejoin:round;stroke-miterlimit:10;" d="M154.385,242.664
			c0,0,35.048,6.872,38.141,6.872s5.154,2.062,4.467,4.467c-0.687,2.405-1.031,4.467-1.031,5.841c0,1.374,3.78,6.872,0.687,9.621
			s-35.392-2.405-39.859-2.749s-8.59-0.687-8.59-3.092c0-2.405,5.154-6.529,5.154-8.247
			C153.355,253.66,149.231,248.506,154.385,242.664z"/>
	</g>
</g>
<g id="Speech_Bubble_1">
	<g>
		<path style="fill:#FFFFFF;stroke:#263238;stroke-linecap:round;stroke-linejoin:round;stroke-miterlimit:10;" d="M62.663,62.259
			h93.08c5.954,0,10.781,4.827,10.781,10.781v51.967c0,5.954-4.827,10.781-10.781,10.781h-34.853l8.417,22.306l-20.741-22.306
			H62.663c-5.954,0-10.781-4.827-10.781-10.781V73.041C51.882,67.087,56.709,62.259,62.663,62.259z"/>
		<g>
			<path style="fill:#263238;" d="M91.57,99.31c0-2.563-2.078-4.641-4.641-4.641c-2.563,0-4.641,2.078-4.641,4.641
				c0,2.563,2.078,4.641,4.641,4.641C89.492,103.951,91.57,101.873,91.57,99.31z"/>
			<path style="fill:#263238;" d="M114.001,99.31c0-2.563-2.078-4.641-4.641-4.641c-2.563,0-4.641,2.078-4.641,4.641
				c0,2.563,2.078,4.641,4.641,4.641C111.923,103.951,114.001,101.873,114.001,99.31z"/>
			<path style="fill:#263238;" d="M136.432,99.31c0-2.563-2.078-4.641-4.641-4.641c-2.563,0-4.641,2.078-4.641,4.641
				c0,2.563,2.078,4.641,4.641,4.641C134.354,103.951,136.432,101.873,136.432,99.31z"/>
		</g>
	</g>
</g>
<g id="Line">
	
		<line style="fill:none;stroke:#263238;stroke-linecap:round;stroke-linejoin:round;stroke-miterlimit:10;" x1="35.019" y1="454.672" x2="712.446" y2="454.672"/>
</g>
</svg>
