<?xml version="1.0" encoding="utf-8"?>
<!-- Generator: Adobe Illustrator 27.5.0, SVG Export Plug-In . SVG Version: 6.00 Build 0)  -->
<svg version="1.1" xmlns="http://www.w3.org/2000/svg" xmlns:xlink="http://www.w3.org/1999/xlink" x="0px" y="0px"
	 viewBox="0 0 500 500" style="enable-background:new 0 0 500 500;" xml:space="preserve">
<g id="Background_Simple">
	<g>
		<path style="fill:#92E3A9;" d="M450.921,247.753C407.079,149.376,256.307,65.97,165.416,78.802
			c-39.532,5.581-94.099,41.703-119.762,112.277C28.78,237.48-29.198,410.287,232.782,400.663
			C494.762,391.04,450.921,247.753,450.921,247.753z"/>
		<path style="opacity:0.7;fill:#FFFFFF;" d="M232.78,400.66c-261.98,9.63-204-163.18-187.13-209.58
			C71.32,120.5,125.88,84.38,165.42,78.8c32.37-4.57,72.33,3.07,112.36,19.24c13.76,5.56,27.53,12.13,41,19.56
			c57.35,31.63,109.28,78.86,132.14,130.15C450.92,247.75,494.76,391.04,232.78,400.66z"/>
	</g>
</g>
<g id="Shadow">
	<g>
		<ellipse style="fill:#92E3A9;" cx="255.839" cy="425.868" rx="160.536" ry="21.845"/>
		<ellipse style="opacity:0.5;fill:#FFFFFF;" cx="255.839" cy="425.868" rx="160.536" ry="21.845"/>
	</g>
</g>
<g id="Plant_1_">
	<g>
		<g>
			<g>
				<path style="fill:#92E3A9;" d="M98.916,360.051c-0.087,0.146,0.693,0.88-1.871,0.993c-6.314,0.279-17.482-0.115-21.692-5.844
					c-6.011-8.18,7.799-7.468,6.443-11.985c-1.356-4.517-16.18-0.782-19.094-7.227c-2.914-6.445,7.879-5.217,7.368-8.536
					c-0.51-3.319-11.817,1.017-15.568-5.818c-3.751-6.834,6.148-3.201,4.538-6.033c-1.61-2.831-14.199-14.602-9.121-17.248
					c5.078-2.647,16.911,9.644,20.804,10.952c3.894,1.307,4.758-10.784,9.883-6.754c5.125,4.031,1.823,22.289,7.794,24.538
					c4.447,1.675,2.004-4.859,7.487-4.624C103.335,322.785,105.859,348.366,98.916,360.051z"/>
				<g style="opacity:0.1;">
					<path d="M98.916,360.051c-0.087,0.146,0.693,0.88-1.871,0.993c-6.314,0.279-17.482-0.115-21.692-5.844
						c-6.011-8.18,7.799-7.468,6.443-11.985c-1.356-4.517-16.18-0.782-19.094-7.227c-2.914-6.445,7.879-5.217,7.368-8.536
						c-0.51-3.319-11.817,1.017-15.568-5.818c-3.751-6.834,6.148-3.201,4.538-6.033c-1.61-2.831-14.199-14.602-9.121-17.248
						c5.078-2.647,16.911,9.644,20.804,10.952c3.894,1.307,4.758-10.784,9.883-6.754c5.125,4.031,1.823,22.289,7.794,24.538
						c4.447,1.675,2.004-4.859,7.487-4.624C103.335,322.785,105.859,348.366,98.916,360.051z"/>
				</g>
			</g>
			<g>
				<path style="fill:#92E3A9;" d="M117.53,361.08c5.089,1.045,14.692-2.079,18.973-6.057c4.344-4.037-5.97-2.946-4.284-6.437
					c1.686-3.49,13.234,1.464,16.435-3.39c3.201-4.853-5.718-5.256-4.874-7.884c0.844-2.628,9.751-0.409,13.682-5.47
					c3.931-5.061-4.575-3.396-2.901-5.485c1.674-2.089,13.418-10.011,9.64-12.817c-3.778-2.807-14.977,5.635-18.307,6.191
					c-3.33,0.556-2.755-6.604-7.438-3.997c-4.683,2.607-4.37,17.855-9.508,18.906c-3.826,0.783-1.065-5.66-5.477-4.724
					C115.748,331.557,115.464,360.656,117.53,361.08z"/>
			</g>
			<g>
				<path style="fill:none;stroke:#263238;stroke-linecap:round;stroke-linejoin:round;stroke-miterlimit:10;" d="M150.226,322.287
					c0,0-30.107,20.252-38.498,57.316"/>
				<path style="fill:none;stroke:#263238;stroke-linecap:round;stroke-linejoin:round;stroke-miterlimit:10;" d="M148.702,333.972
					c-5.758-1.185-10.697,0.081-11.077,0.147c-0.019,0.01-0.029,0.01-0.029,0.01"/>
				<path style="fill:none;stroke:#263238;stroke-linecap:round;stroke-linejoin:round;stroke-miterlimit:10;" d="M141.6,318.966
					c0,0-7.403,7.94-8.432,19.244"/>
				<path style="fill:none;stroke:#263238;stroke-linecap:round;stroke-linejoin:round;stroke-miterlimit:10;" d="M128.341,343.823
					c0,0,4.993-3.505,10.989-0.672"/>
				<path style="fill:none;stroke:#263238;stroke-linecap:round;stroke-linejoin:round;stroke-miterlimit:10;" d="M121.782,353.326
					c0,0-1.865-5.997,0.254-13.923"/>
			</g>
			<g>
				<g>
					<path style="fill:#92E3A9;" d="M109.229,358.287c6.094-1.674,14.785-10.358,17.233-17.033c2.484-6.774-8.099,0.098-8.196-4.617
						c-0.097-4.715,15.158-5.712,15.952-12.741c0.795-7.029-9.1-2.546-9.634-5.861c-0.534-3.315,10.349-5.822,11.82-13.478
						c1.471-7.656-6.834-1.159-6.171-4.348c0.663-3.189,9.029-18.256,3.383-19.216c-5.645-0.96-13.132,14.371-16.436,16.811
						c-3.304,2.44-6.63-5.641-10.27-0.232c-3.64,5.41,5.11,21.772,0.118,25.745c-3.718,2.959-4.277-5.55-8.545-2.101
						C91.013,327.255,106.755,358.966,109.229,358.287z"/>
				</g>
				<g style="opacity:0.2;">
					<path style="fill:#FFFFFF;" d="M109.229,358.287c6.094-1.674,14.785-10.358,17.233-17.033c2.484-6.774-8.099,0.098-8.196-4.617
						c-0.097-4.715,15.158-5.712,15.952-12.741c0.795-7.029-9.1-2.546-9.634-5.861c-0.534-3.315,10.349-5.822,11.82-13.478
						c1.471-7.656-6.834-1.159-6.171-4.348c0.663-3.189,9.029-18.256,3.383-19.216c-5.645-0.96-13.132,14.371-16.436,16.811
						c-3.304,2.44-6.63-5.641-10.27-0.232c-3.64,5.41,5.11,21.772,0.118,25.745c-3.718,2.959-4.277-5.55-8.545-2.101
						C91.013,327.255,106.755,358.966,109.229,358.287z"/>
				</g>
			</g>
			<g>
				<path style="fill:#FFFFFF;stroke:#263238;stroke-miterlimit:10;" d="M113.818,430.934c-0.339,0.077-11.854,0.077-12.193,0
					c-8.451-1.857-38.462-11.716-11.413-43.651h34.627C151.875,419.205,122.269,429.077,113.818,430.934z"/>
				<g>
					<g>
						<g>
							<g>
								<path style="fill:none;stroke:#263238;stroke-linecap:round;stroke-linejoin:round;stroke-miterlimit:10;" d="
									M73.834,322.521c0,0,24.517,16.743,29.863,59.453"/>
								<path style="fill:none;stroke:#263238;stroke-linecap:round;stroke-linejoin:round;stroke-miterlimit:10;" d="
									M70.085,327.753c5.92-1.273,9.54-0.104,9.54-0.104"/>
								<path style="fill:none;stroke:#263238;stroke-linecap:round;stroke-linejoin:round;stroke-miterlimit:10;" d="
									M76.797,310.108c0,0,7.448,9.841,7.359,22.679"/>
								<path style="fill:none;stroke:#263238;stroke-linecap:round;stroke-linejoin:round;stroke-miterlimit:10;" d="
									M91.465,343.624c0,0-5.301-4.976-12.339-2.431"/>
								<path style="fill:none;stroke:#263238;stroke-linecap:round;stroke-linejoin:round;stroke-miterlimit:10;" d="
									M95.291,351.187c0,0,2.759-6.513,1.25-15.686"/>
							</g>
						</g>
						<g>
							<path style="fill:none;stroke:#263238;stroke-linecap:round;stroke-linejoin:round;stroke-miterlimit:10;" d="
								M123.469,303.113c0,0-20.489,28.657-13.716,80.815"/>
							<path style="fill:none;stroke:#263238;stroke-linecap:round;stroke-linejoin:round;stroke-miterlimit:10;" d="M135.449,307.2
								c-10.728-0.019-16.391,4.124-16.733,4.38h-0.009c-0.009,0.01-0.009,0.01-0.009,0.01"/>
							<path style="fill:none;stroke:#263238;stroke-linecap:round;stroke-linejoin:round;stroke-miterlimit:10;" d="M115.4,319.553
								c-2.794-8.238-2.566-16.41-1.796-22.073"/>
							<path style="fill:none;stroke:#263238;stroke-linecap:round;stroke-linejoin:round;stroke-miterlimit:10;" d="
								M111.072,335.357c0,0,4.257-8.098,13.45-8.176"/>
							<path style="fill:none;stroke:#263238;stroke-linecap:round;stroke-linejoin:round;stroke-miterlimit:10;" d="
								M109.536,345.834c0,0-5.738-6.402-7.528-17.754"/>
						</g>
					</g>
					<polygon style="fill:#FFFFFF;stroke:#263238;stroke-miterlimit:10;" points="89.474,387.285 125.86,387.285 128.067,376.974 
						87.266,376.974 					"/>
				</g>
			</g>
		</g>
		<g>
			<path style="fill:none;stroke:#263238;stroke-linecap:round;stroke-linejoin:round;" d="M128.061,400.096
				c1.666,3.59,2.421,7.607,2.092,11.552c-0.235,2.82-1.275,5.938-3.85,7.114"/>
			<path style="fill:none;stroke:#263238;stroke-linecap:round;stroke-linejoin:round;" d="M123.957,394.031
				c0.9,0.948,1.713,1.976,2.432,3.066"/>
		</g>
	</g>
</g>
<g id="Device">
	<g>
		<g id="freepik--Device--inject-2_1_">
			<polygon style="fill:#263238;stroke:#263238;stroke-linecap:round;stroke-linejoin:round;" points="247.52,315.576 
				176.117,315.576 189.295,369.28 260.698,369.28 			"/>
			<polygon style="fill:#FFFFFF;stroke:#263238;stroke-linecap:round;stroke-linejoin:round;" points="244.144,318.695 
				181.023,318.695 192.683,366.161 255.791,366.161 			"/>
			<polygon style="fill:#92E3A9;stroke:#263238;stroke-linecap:round;stroke-linejoin:round;" points="244.144,318.695 
				181.023,318.695 182.122,323.134 245.23,323.134 			"/>
			
				<rect x="188.161" y="364.479" style="fill:#FFFFFF;stroke:#263238;stroke-linecap:round;stroke-linejoin:round;" width="104.535" height="4.801"/>
			
				<rect x="235.476" y="364.479" style="fill:#263238;stroke:#263238;stroke-linecap:round;stroke-linejoin:round;" width="57.232" height="4.801"/>
		</g>
		<g>
			<polygon style="fill:#92E3A9;" points="236.906,340.71 237.631,343.719 190.403,343.719 189.682,340.71 			"/>
			<g>
				<g>
					<g>
						<path style="fill:#263238;" d="M247.767,345.201H190.38l-1.418-6.036h57.387L247.767,345.201z M190.943,344.507h55.954
							l-1.093-4.649h-55.954L190.943,344.507z"/>
					</g>
				</g>
			</g>
			<g>
				<g>
					<polygon style="fill:#92E3A9;stroke:#92E3A9;stroke-width:0.2;stroke-miterlimit:10;" points="220.68,336.471 213.697,336.471 
						211.956,329.489 213.948,329.489 214.096,330.082 212.698,330.082 214.143,335.878 219.938,335.878 218.493,330.082 
						217.062,330.082 216.914,329.489 218.939,329.489 					"/>
				</g>
				<g>
					<g>
						<polygon style="fill:#92E3A9;stroke:#92E3A9;stroke-width:0.2;stroke-miterlimit:10;" points="216.624,332.98 216.03,332.98 
							214.366,326.306 214.959,326.306 						"/>
					</g>
					<g>
						<g>
							<polygon style="fill:#92E3A9;stroke:#92E3A9;stroke-width:0.2;stroke-miterlimit:10;" points="216.421,333.319 
								213.918,332.173 214.059,331.646 216.232,332.641 217.808,331.543 218.238,332.054 							"/>
						</g>
					</g>
				</g>
			</g>
		</g>
	</g>
</g>
<g id="Desk">
	<g>
		<g>
			<polygon style="fill:none;stroke:#263238;stroke-linecap:round;stroke-linejoin:round;stroke-miterlimit:10;" points="
				364.712,163.812 333.978,247.357 338.377,247.357 368.413,165.722 			"/>
			<path style="fill:none;stroke:#263238;stroke-linecap:round;stroke-linejoin:round;stroke-miterlimit:10;" d="M369.577,149.457
				l-56.035-61.933c-0.015,0.205-0.02,0.41-0.062,0.617c-0.203,1-0.701,1.864-1.383,2.524c2.645,2.189,4.699,4.897,6.13,7.881
				l46.087,50.972l0.586-4.895L369.577,149.457z"/>
			<path style="fill:#92E3A9;stroke:#263238;stroke-miterlimit:10;" d="M308.4,88.17c0.01,0,0.03,0.01,0.04,0.01
				c0.194,0.107,0.37,0.232,0.56,0.344l3.167,1.45l-0.291,0.525c0.072,0.058,0.151,0.108,0.222,0.167
				c0.682-0.66,1.18-1.524,1.383-2.524c0.042-0.207,0.047-0.412,0.062-0.617c0.176-2.407-1.437-4.63-3.865-5.122
				c-2.635-0.535-5.205,1.168-5.739,3.804l0.626,0.287C305.868,86.931,307.152,87.484,308.4,88.17z"/>
			<polygon style="fill:none;stroke:#263238;stroke-linecap:round;stroke-linejoin:round;stroke-miterlimit:10;" points="
				327.92,247.357 327.92,271.186 342.013,271.186 342.013,262.846 330.984,262.846 330.984,255.053 342.013,255.053 
				342.013,247.357 338.377,247.357 333.978,247.357 			"/>
			<path style="fill:none;stroke:#263238;stroke-linecap:round;stroke-linejoin:round;stroke-miterlimit:10;" d="M304.564,86.492
				l-0.626-0.287l-0.047,0.068C304.116,86.341,304.34,86.417,304.564,86.492z"/>
			<path style="fill:none;stroke:#263238;stroke-linecap:round;stroke-linejoin:round;stroke-miterlimit:10;" d="M309,88.524
				c1.018,0.598,1.982,1.253,2.876,1.975l0.291-0.525L309,88.524z"/>
			<polygon style="fill:none;stroke:#263238;stroke-linecap:round;stroke-linejoin:round;stroke-miterlimit:10;" points="
				368.758,165.9 374.406,154.448 369.577,149.457 364.901,144.624 364.315,149.519 362.726,162.786 364.712,163.812 
				368.413,165.722 			"/>
			<path style="fill:#FFFFFF;stroke:#263238;stroke-miterlimit:10;" d="M288.4,110.425c2.496,5.487,8.967,7.912,14.454,5.417
				c2.034-0.928,3.645-2.404,4.742-4.171c-6.487-3.31-13.022-6.422-19.573-9.306C287.147,104.911,287.197,107.781,288.4,110.425z"/>
			<path style="fill:#92E3A9;stroke:#263238;stroke-miterlimit:10;" d="M312.098,90.666c-0.071-0.059-0.15-0.109-0.222-0.167
				c-0.893-0.722-1.857-1.377-2.876-1.975c-0.19-0.111-0.366-0.237-0.56-0.344c-0.01,0-0.03-0.01-0.04-0.01
				c-1.248-0.686-2.532-1.239-3.836-1.678c-0.224-0.075-0.448-0.151-0.673-0.219c-10.34-3.129-21.805,1.279-27.221,11.127
				c0,0.01-0.01,0.01-0.01,0.02l1.12,0.62c3.415,1.38,6.831,2.823,10.242,4.325c6.551,2.884,13.086,5.996,19.573,9.306
				c3.746,1.911,7.477,3.884,11.184,5.929c2.612-6.295,2.249-13.212-0.552-19.053C316.797,95.563,314.743,92.855,312.098,90.666z"/>
		</g>
		<g>
			
				<rect x="328.656" y="256.018" style="fill:#BFBFBF;stroke:#263238;stroke-linecap:round;stroke-linejoin:round;stroke-miterlimit:10;" width="114.813" height="152.407"/>
			
				<rect x="341.864" y="269.227" style="fill:#757575;stroke:#263238;stroke-linecap:round;stroke-linejoin:round;stroke-miterlimit:10;" width="86.364" height="29.465"/>
			
				<rect x="341.864" y="307.837" style="fill:#757575;stroke:#263238;stroke-linecap:round;stroke-linejoin:round;stroke-miterlimit:10;" width="86.364" height="85.348"/>
			
				<rect x="320.527" y="246.808" style="fill:#757575;stroke:#263238;stroke-linecap:round;stroke-linejoin:round;stroke-miterlimit:10;" width="130.383" height="9.144"/>
			<path style="fill:#BFBFBF;stroke:#263238;stroke-linecap:round;stroke-linejoin:round;stroke-miterlimit:10;" d="
				M388.941,276.678c0,2.057-1.668,3.725-3.726,3.725c-2.057,0-3.725-1.668-3.725-3.725c0-2.058,1.668-3.726,3.725-3.726
				C387.273,272.953,388.941,274.621,388.941,276.678z"/>
			
				<ellipse style="fill:#BFBFBF;stroke:#263238;stroke-linecap:round;stroke-linejoin:round;stroke-miterlimit:10;" cx="418.407" cy="349.222" rx="5.758" ry="12.531"/>
			<path style="fill:#BFBFBF;stroke:#263238;stroke-linecap:round;stroke-linejoin:round;stroke-miterlimit:10;" d="
				M418.407,367.784L418.407,367.784c-1.684,0-3.048-1.365-3.048-3.048v-29.804c0-1.684,1.365-3.048,3.048-3.048l0,0
				c1.683,0,3.048,1.365,3.048,3.048v29.804C421.455,366.419,420.09,367.784,418.407,367.784z"/>
		</g>
		<g>
			<g>
				<g>
					<polygon style="fill:#263238;stroke:#263238;stroke-miterlimit:10;" points="430.11,235.992 438.672,213.718 437.353,213.718 
						428.195,235.992 					"/>
				</g>
				<g>
					<polygon style="fill:#263238;stroke:#263238;stroke-miterlimit:10;" points="392.781,235.933 384.219,213.659 385.538,213.659 
						394.695,235.933 					"/>
				</g>
				<polygon style="fill:#263238;stroke:#263238;stroke-miterlimit:10;" points="393.126,235.933 393.565,236.927 394.84,236.927 
					394.434,235.933 				"/>
				<polygon style="fill:#263238;stroke:#263238;stroke-miterlimit:10;" points="429.788,235.933 429.348,236.927 428.073,236.927 
					428.479,235.933 				"/>
			</g>
			<g>
				<g>
					<g>
						<rect x="390.918" y="242.754" style="fill:#FFFFFF;stroke:#263238;stroke-miterlimit:10;" width="5.296" height="3.298"/>
						<rect x="426.835" y="242.754" style="fill:#FFFFFF;stroke:#263238;stroke-miterlimit:10;" width="5.295" height="3.298"/>
					</g>
					<path style="fill:#263238;stroke:#263238;stroke-miterlimit:10;" d="M433.982,244.215l-11.506,1.245
						c-7.298,0.79-14.66,0.79-21.958,0l-11.506-1.245v-7.14l9.343-1.214c8.724-1.133,17.559-1.133,26.283,0l9.343,1.214V244.215z"/>
				</g>
				<g>
					<path style="fill:#FFFFFF;stroke:#263238;stroke-miterlimit:10;" d="M395.697,240.847c0,1.177-0.954,2.131-2.131,2.131
						c-1.177,0-2.132-0.954-2.132-2.131c0-1.177,0.954-2.131,2.132-2.131C394.743,238.716,395.697,239.67,395.697,240.847z"/>
				</g>
				<g>
					<path style="fill:#FFFFFF;" d="M405.63,240.864c0,0.372-0.302,0.674-0.674,0.674c-0.372,0-0.674-0.302-0.674-0.674
						c0-0.372,0.302-0.674,0.674-0.674C405.329,240.19,405.63,240.492,405.63,240.864z"/>
					<path style="fill:#FFFFFF;" d="M410.434,240.864c0,0.372-0.302,0.674-0.674,0.674c-0.372,0-0.674-0.302-0.674-0.674
						c0-0.372,0.302-0.674,0.674-0.674C410.133,240.19,410.434,240.492,410.434,240.864z"/>
					<path style="fill:#FFFFFF;" d="M415.238,240.864c0,0.372-0.302,0.674-0.674,0.674c-0.372,0-0.674-0.302-0.674-0.674
						c0-0.372,0.302-0.674,0.674-0.674C414.936,240.19,415.238,240.492,415.238,240.864z"/>
					<path style="fill:#FFFFFF;" d="M420.042,240.864c0,0.372-0.302,0.674-0.674,0.674c-0.372,0-0.674-0.302-0.674-0.674
						c0-0.372,0.302-0.674,0.674-0.674C419.74,240.19,420.042,240.492,420.042,240.864z"/>
				</g>
			</g>
		</g>
		<g>
			<path style="fill:none;stroke:#263238;stroke-miterlimit:10;" d="M365.906,246.355h3.864c-0.081-0.116-0.151-0.239-0.181-0.375
				C368.704,246.139,367.423,246.268,365.906,246.355z"/>
			<path style="opacity:0.3;fill:none;stroke:#263238;stroke-miterlimit:10;" d="M365.906,246.355h3.864
				c-0.081-0.116-0.151-0.239-0.181-0.375C368.704,246.139,367.423,246.268,365.906,246.355z"/>
			<path style="fill:none;stroke:#263238;stroke-miterlimit:10;" d="M371.718,244.265c0.043,0.135,0.239,0.148,0.331,0.261
				c0.373,0.455-0.148,1.539-0.298,1.829h5.209l-3.992-6.888C372.437,241.473,371.403,243.268,371.718,244.265z"/>
			<path style="opacity:0.3;fill:none;stroke:#263238;stroke-miterlimit:10;" d="M371.718,244.265
				c0.043,0.135,0.239,0.148,0.331,0.261c0.373,0.455-0.148,1.539-0.298,1.829h5.209l-3.992-6.888
				C372.437,241.473,371.403,243.268,371.718,244.265z"/>
			<path style="fill:none;stroke:#263238;stroke-miterlimit:10;" d="M372.049,244.526c-0.092-0.113-0.289-0.126-0.331-0.261
				c-0.315-0.997,0.719-2.792,1.249-4.798c0.07-0.265,0.134-0.534,0.182-0.805c0.413-2.322-0.197-4.475,0.561-5.603
				c0.303-0.452,0.892-0.675,0.988-1.213c0.095-0.538-0.414-0.763-0.556-1.215c-0.356-1.13,1.018-3.28,1.431-5.602
				c0.413-2.323-0.197-4.477,0.561-5.604c0.09-0.135,0.291-0.147,0.424-0.259c0.62-0.526,0.339-1.906,0.339-1.906
				s-1.286-0.528-1.905-0.003c-0.156,0.132-0.207,0.364-0.376,0.448c-1.583,0.789-4.552-0.513-8.021-0.518
				c-3.468-0.005-6.899,1.288-8.201,0.495c-0.139-0.085-0.108-0.317-0.217-0.449c-0.433-0.527-1.905-0.003-1.905-0.003
				s-0.771,1.379-0.339,1.906c0.092,0.112,0.289,0.126,0.331,0.261c0.357,1.129-1.018,3.28-1.431,5.603
				c-0.413,2.322,0.197,4.475-0.561,5.603c-0.303,0.452-0.892,0.675-0.988,1.213c-0.096,0.537,0.413,0.763,0.556,1.215
				c0.356,1.129-1.018,3.28-1.431,5.602c-0.413,2.323,0.197,4.477-0.561,5.604c-0.091,0.135-0.291,0.147-0.424,0.26
				c-0.62,0.525-0.339,1.906-0.339,1.906s1.286,0.528,1.905,0.003c0.156-0.132,0.282-0.285,0.377-0.448
				c1.563,0.305,4.552,0.513,8.021,0.518c1.633,0.002,3.168-0.042,4.518-0.12c1.517-0.087,2.798-0.216,3.682-0.375
				c0.031,0.137,0.101,0.259,0.181,0.375c0.016,0.023,0.018,0.052,0.036,0.074c0.433,0.527,1.905,0.003,1.905,0.003
				s0.016-0.03,0.04-0.076C371.902,246.065,372.422,244.98,372.049,244.526z M361.956,243.47L361.956,243.47
				c-4.248-0.006-7.079-3.455-6.324-7.704l1.323-7.442c0.755-4.249,4.811-7.688,9.059-7.682c4.248,0.006,7.079,3.455,6.324,7.704
				l-1.323,7.442C370.259,240.036,366.204,243.476,361.956,243.47z"/>
			<path style="fill:none;stroke:#263238;stroke-miterlimit:10;" d="M371.015,235.788l1.323-7.442
				c0.755-4.249-2.076-7.698-6.324-7.704c-4.248-0.006-8.303,3.433-9.059,7.682l-1.323,7.442c-0.755,4.249,2.076,7.698,6.323,7.704
				h0C366.204,243.476,370.259,240.036,371.015,235.788z"/>
		</g>
	</g>
</g>
<g id="Download">
	<g>
		<g>
			<path style="fill:#FFFFFF;stroke:#263238;stroke-miterlimit:10;" d="M224.772,118.752c0,12.309-9.61,22.376-21.732,23.111
				c-0.472,0.03-62.114,0.022-62.699-0.022c-11.957-0.907-21.38-10.9-21.38-23.089c0-12.084,9.258-22.009,21.072-23.058
				c0.96-17.429,15.405-31.275,33.081-31.275c17.796,0,32.316,14.033,33.096,31.634C216.804,98.183,224.772,107.538,224.772,118.752
				z"/>
			<path style="fill:none;stroke:#263238;stroke-linecap:round;stroke-linejoin:round;stroke-miterlimit:10;" d="M147.349,86.395
				c4.487-10.631,15.012-18.096,27.279-18.096"/>
			<path style="fill:none;stroke:#263238;stroke-linecap:round;stroke-linejoin:round;stroke-miterlimit:10;" d="M145.078,96.234
				c0.096-1.745,0.344-3.45,0.729-5.102"/>
		</g>
		<g>
			<g>
				<g>
					<g>
						<path style="fill:none;stroke:#263238;stroke-linecap:round;stroke-linejoin:round;stroke-miterlimit:10;" d="
							M172.994,254.764c1.521,3.456,3.077,6.847,4.661,10.138"/>
						<path style="fill:none;stroke:#263238;stroke-linecap:round;stroke-linejoin:round;stroke-miterlimit:10;" d="
							M139.911,156.663c0,0,11.946,46.961,29.096,88.716"/>
					</g>
					<path style="fill:none;stroke:#263238;stroke-linecap:round;stroke-linejoin:round;stroke-miterlimit:10;" d="M207.285,191.654
						c0.078,1.794,0.061,3.127,0.174,4.733"/>
					<path style="fill:none;stroke:#263238;stroke-linecap:round;stroke-linejoin:round;stroke-miterlimit:10;" d="M207.282,148.44
						c-0.087,0.845-0.745,21.758-0.258,38.622"/>
				</g>
			</g>
			<path style="fill:#92E3A9;stroke:#263238;stroke-miterlimit:10;" d="M236.281,287.133l-21.286,32.449l-40.784-30.152l20.32-0.752
				l-1.298-3.166c-19.317-46.971-33.365-95.936-41.858-146.019l-4.079-24.007l50.07-0.512l-0.242,7.562
				c-0.077,55.718,6.641,111.219,20.014,165.305L236.281,287.133z"/>
		</g>
		<g>
			<path style="fill:#FFFFFF;stroke:#263238;stroke-linecap:round;stroke-linejoin:round;stroke-miterlimit:10;" d="
				M169.643,116.891h18.598l0.057,6.548c0.112,12.761,0.902,25.507,2.368,38.185l0,0l-28.045,1.397l-1.457-8.314
				c-1.417-8.085-2.224-16.265-2.416-24.471l0,0l10.897-13.313"/>
			<polygon style="fill:#FFFFFF;stroke:#263238;stroke-linecap:round;stroke-linejoin:round;stroke-miterlimit:10;" points="
				170.853,129.971 158.856,130.142 169.646,116.924 			"/>
		</g>
		<g>
			<path style="fill:#FFFFFF;" d="M200.763,304.205c-2.222,0-4.025-0.737-4.101-0.769c-0.106-0.042-2.791-1.138-3.666-4.276
				c-0.057-0.213-0.11-0.419-0.141-0.643c-0.271-1.394-0.122-3.009,0.445-4.772c0.969-2.993,3.33-4.575,6.829-4.575
				c1.145,0,2.379,0.166,3.668,0.495c0.059,0.013,0.122,0.028,0.186,0.045l-10.922-31.079c-0.096-0.324-0.052-0.627,0.112-0.857
				c0.155-0.219,0.408-0.353,0.692-0.366c0.001,0,0.002,0,0.003,0c0.545,0,1.018,0.334,1.203,0.813l0.271,0.763
				c1.657,1.914,3.936,3.272,6.266,3.734c2.213,0.429,4.412,1.587,6.189,3.261c1.07,0.989,1.873,2.232,2.259,3.498l2.803,7.945
				c0.078,0.228,0.064,0.459-0.037,0.656c-0.097,0.189-0.263,0.326-0.469,0.389l-0.124,0.038l-0.198-0.044
				c-0.271-0.021-0.51-0.133-0.701-0.313c-1.724-2.176-4.131-3.689-6.653-4.207c-1.546-0.31-2.959-0.983-4.427-2.133l7.304,20.802
				c1.501,4.323-0.266,7.948-0.285,7.981C205.894,302.955,203.645,304.205,200.763,304.205z"/>
			<path style="fill:#263238;" d="M193.917,257.907c0.287,0,0.577,0.211,0.686,0.494l0.297,0.838
				c1.726,2.027,4.133,3.48,6.609,3.969c2.122,0.412,4.236,1.527,5.944,3.135c1.015,0.938,1.762,2.093,2.123,3.279l2.81,7.966
				c0.063,0.186-0.017,0.352-0.179,0.401l-0.103-0.022c-0.007,0-0.013,0-0.02,0c-0.143,0-0.295-0.072-0.411-0.183
				c-1.749-2.215-4.281-3.797-6.896-4.334c-2.185-0.436-3.904-1.609-5.63-3.27l7.934,22.595c1.391,4.008-0.18,7.451-0.247,7.566
				c-1.559,2.682-3.997,3.364-6.074,3.364c-2.148,0-3.91-0.73-3.91-0.73s-2.558-1.013-3.376-3.949
				c-0.05-0.187-0.099-0.374-0.127-0.576c-0.236-1.219-0.167-2.71,0.425-4.551c1.086-3.356,3.813-4.228,6.353-4.228
				c1.317,0,2.584,0.235,3.545,0.48c0.207,0.044,0.391,0.103,0.552,0.136c0.045,0.011,0.09,0.023,0.121,0.035
				c0.166,0.046,0.305,0.094,0.431,0.142l-11.245-31.997c-0.086-0.293,0.062-0.544,0.358-0.558
				C193.899,257.907,193.908,257.907,193.917,257.907 M193.917,256.907h-0.024l-0.052,0.002c-0.439,0.021-0.831,0.231-1.076,0.575
				c-0.253,0.355-0.324,0.816-0.193,1.262l0.008,0.026l0.009,0.025l10.62,30.217c-1.06-0.227-2.1-0.344-3.08-0.344
				c-3.737,0-6.263,1.701-7.304,4.921c-0.59,1.834-0.745,3.523-0.461,5.022c0.036,0.253,0.095,0.474,0.147,0.669
				c0.943,3.387,3.851,4.572,3.974,4.621c0.065,0.027,1.957,0.8,4.278,0.8c3.07,0,5.47-1.335,6.938-3.861
				c0.02-0.035,1.902-3.859,0.327-8.396l-6.792-19.343c1.089,0.666,2.18,1.094,3.347,1.327c2.402,0.493,4.703,1.942,6.307,3.973
				l0.044,0.055l0.051,0.049c0.28,0.267,0.64,0.43,1.001,0.455l0.014,0.003l0.251,0.054l0.246-0.074
				c0.336-0.101,0.609-0.327,0.769-0.637c0.165-0.319,0.189-0.69,0.069-1.043l-2.814-7.977c-0.397-1.307-1.25-2.629-2.388-3.681
				c-1.838-1.731-4.125-2.935-6.432-3.383c-2.191-0.433-4.34-1.705-5.92-3.499l-0.234-0.66
				C195.279,257.373,194.613,256.907,193.917,256.907L193.917,256.907z"/>
		</g>
		<g>
			<g>
				<path style="fill:#FFFFFF;stroke:#263238;stroke-linecap:round;stroke-linejoin:round;stroke-miterlimit:10;" d="
					M153.251,222.083c10.856-2.343,16.284-3.515,27.14-5.857c-3.369-14.715-6.062-29.585-8.07-44.546
					c-12.036,2.598-18.054,3.897-30.091,6.494C145.23,192.968,148.909,207.624,153.251,222.083z"/>
				<path style="fill:#263238;stroke:#263238;stroke-linecap:round;stroke-linejoin:round;stroke-miterlimit:10;" d="
					M175.375,206.826c-8.816,1.902-13.223,2.854-22.039,4.756c-2.554-9.45-3.713-14.205-5.793-23.757
					c9.321-2.012,13.981-3.018,23.302-5.029C172.42,192.457,173.327,197.266,175.375,206.826z"/>
				<g>
					<path style="fill:#FFFFFF;stroke:#263238;stroke-linecap:round;stroke-linejoin:round;stroke-miterlimit:10;" d="
						M165.973,196.05c-1.673,5.483-2.478,8.218-4.027,13.673c5.354-1.155,8.03-1.733,13.384-2.888
						C171.526,202.535,169.654,200.378,165.973,196.05z"/>
					<path style="fill:#FFFFFF;stroke:#263238;stroke-linecap:round;stroke-linejoin:round;stroke-miterlimit:10;" d="
						M158.012,194.841c-1.966,6.717-2.902,10.066-4.68,16.742c6.535-1.41,9.802-2.115,16.337-3.526
						C164.913,202.792,162.581,200.148,158.012,194.841z"/>
					<path style="fill:#FFFFFF;stroke:#263238;stroke-linecap:round;stroke-linejoin:round;stroke-miterlimit:10;" d="
						M170.202,189.484c0.241,1.335-0.562,2.626-1.798,2.893c-1.237,0.267-2.45-0.589-2.705-1.921
						c-0.256-1.34,0.555-2.652,1.805-2.922C168.755,187.264,169.96,188.141,170.202,189.484z"/>
				</g>
			</g>
		</g>
		<g>
			<g>
				<g>
					<path style="fill:#FFFFFF;stroke:#263238;stroke-linecap:round;stroke-linejoin:round;stroke-miterlimit:10;" d="
						M191.663,250.643c12.329,0.944,18.494,1.416,30.823,2.36c-4.87-14.196-7.05-29.29-6.146-44.281
						c-12.02-2.902-18.03-4.353-30.05-7.255C184.802,218.02,186.72,234.787,191.663,250.643z"/>
				</g>
				<g>
					<path style="fill:#263238;stroke:#263238;stroke-linecap:round;stroke-linejoin:round;stroke-miterlimit:10;" d="
						M214.042,230.543c0.914,6.706-3.174,11.45-9.919,10.682c-6.745-0.768-13.574-7.236-14.397-14.523
						c-0.823-7.287,4.61-12.126,11.264-10.778C207.643,217.272,213.128,223.837,214.042,230.543z"/>
					<path style="fill:#FFFFFF;stroke:#263238;stroke-linecap:round;stroke-linejoin:round;stroke-miterlimit:10;" d="
						M208.931,229.735c-4.876-3.374-7.27-5.117-11.952-8.708c0.346,5.542,0.68,8.314,1.657,13.813
						C202.69,232.7,204.752,231.678,208.931,229.735z"/>
				</g>
			</g>
		</g>
	</g>
</g>
<g id="Character">
	<g>
		<path style="fill:#263238;stroke:#263238;stroke-linecap:round;stroke-linejoin:round;" d="M206.009,370.319
			c15.689-7.436,74.761,12.028,74.761,12.028l-3.729,8.175C277.041,390.522,185.735,379.927,206.009,370.319z"/>
		<path style="fill:#263238;stroke:#263238;stroke-linecap:round;stroke-linejoin:round;" d="M276.908,391.248
			c-5.184-1.794-10.294-3.792-15.218-6.21c-15.8-7.759-46.807-21.315-58.114-14.378c-15.444,9.475-5.143,35.645,29.772,52.936
			c35.022,17.344,60.885,17.557,69.213,9.455C310.161,425.657,296.258,397.943,276.908,391.248z"/>
		<g id="_x3C_Group_x3E_">
			<path style="fill:#FFFFFF;" d="M284.609,219.023c0,0-1.648,5.91-0.988,7.981c0.66,2.071,3.164,4.532,2.657,7.01
				c-0.507,2.478-3.264,5.421-3.016,7.359s3.515,2.875,3.515,2.875s4.628,8.923,5.948,11.994c1.32,3.071,2.351,2.198,5.417,1.973
				c3.066-0.225,10.363-4.346,14.728-7.763c4.365-3.418,1.092-17.239-4.759-27.265c-5.851-10.026-17.346-12.171-20.322-10.247
				C284.815,214.864,284.609,219.023,284.609,219.023z"/>
			<g>
				<defs>
					<path id="SVGID_1_" d="M284.609,219.023c0,0-1.648,5.91-0.988,7.981c0.66,2.071,3.164,4.532,2.657,7.01
						c-0.507,2.478-3.264,5.421-3.016,7.359s3.515,2.875,3.515,2.875s4.628,8.923,5.948,11.994c1.32,3.071,2.351,2.198,5.417,1.973
						c3.066-0.225,10.363-4.346,14.728-7.763c4.365-3.418,1.092-17.239-4.759-27.265c-5.851-10.026-17.346-12.171-20.322-10.247
						C284.815,214.864,284.609,219.023,284.609,219.023z"/>
				</defs>
				<clipPath id="SVGID_00000057111954275902113230000017308493027720703896_">
					<use xlink:href="#SVGID_1_"  style="overflow:visible;"/>
				</clipPath>
				<g style="clip-path:url(#SVGID_00000057111954275902113230000017308493027720703896_);">
					<g>
						<path style="fill:#92E3A9;" d="M302.193,216.581c-1.915,4.479-4.517,12.312-2.754,18.336
							c2.65,9.066,5.127,14.042,1.356,20.272c-0.672,1.08-1.336,2.065-1.96,2.911c3.356-0.689,9.975-4.473,14.035-7.649
							c4.353-3.42,1.092-17.239-4.759-27.265C306.599,220.613,304.587,218.367,302.193,216.581z"/>
						<path style="opacity:0.5;fill:#FFFFFF;enable-background:new    ;" d="M302.193,216.581
							c-1.915,4.479-4.517,12.312-2.754,18.336c2.65,9.066,5.127,14.042,1.356,20.272c-0.672,1.08-1.336,2.065-1.96,2.911
							c3.356-0.689,9.975-4.473,14.035-7.649c4.353-3.42,1.092-17.239-4.759-27.265
							C306.599,220.613,304.587,218.367,302.193,216.581z"/>
					</g>
					<path style="fill:none;stroke:#263238;stroke-linecap:round;stroke-linejoin:round;" d="M287.335,228.848
						c0,0,0.636-3.109,3.941-0.277"/>
					<path style="fill:#263238;" d="M290.026,234.13c0.323,1.055,0.181,2.033-0.323,2.186c-0.504,0.152-1.159-0.58-1.482-1.634
						c-0.323-1.055-0.181-2.024,0.314-2.176C289.028,232.353,289.703,233.076,290.026,234.13z"/>
				</g>
			</g>
			<path style="fill:none;stroke:#263238;stroke-linecap:round;stroke-linejoin:round;" d="M284.609,219.023
				c0,0-1.648,5.91-0.988,7.981c0.66,2.071,3.164,4.532,2.657,7.01c-0.507,2.478-3.264,5.421-3.016,7.359s3.515,2.875,3.515,2.875
				s4.628,8.923,5.948,11.994c1.32,3.071,2.351,2.198,5.417,1.973c3.066-0.225,10.363-4.346,14.728-7.763
				c4.365-3.418,1.092-17.239-4.759-27.265c-5.851-10.026-17.346-12.171-20.322-10.247
				C284.815,214.864,284.609,219.023,284.609,219.023z"/>
		</g>
		<g>
			<path style="fill:#FFFFFF;stroke:#263238;stroke-linecap:round;stroke-linejoin:round;" d="M286.763,353.363
				c0,0-6.15-5.715-8.026-5.87c-1.876-0.155-4.564,0.803-5.268,0.745c-0.704-0.058-2.307-0.663-3.538-0.057
				c-0.927,0.525-1.776,1.177-2.522,1.938c-1.263,0.441-2.495,0.971-3.684,1.584c-1.974,1.017-6.876,6.043-7.678,7.168
				c-0.802,1.125-0.155,1.876,1.076,1.27c1.231-0.607,7.93-5.022,7.93-5.022s5.641,3.301,6.928,4.867
				c1.553,1.978,3.657,3.452,6.047,4.236c2.284,0.648,4.624,1.079,6.989,1.287c0,0,4.633-4.103,4.16-7.459
				C289.043,356.225,288.172,354.532,286.763,353.363z"/>
			<g>
				<path style="fill:#FFFFFF;stroke:#263238;stroke-linecap:round;stroke-linejoin:round;" d="M329.595,275.219
					c-1.553,0.694-3.098,1.537-4.632,2.568c-2.723,1.831-5.402,5.813-6.333,14.388s-0.833,28.888-0.932,37.513
					c-0.229,19.983-26.486,19.813-31.072,21.584c-4.586,1.77-8.879,6.809-6.729,11.23c1.91,3.925,7.257,4.321,11.617,4.106
					c5.849-0.289,35.994-1.895,40.431-5.453c6.469-5.188,4.967-12.353,5.82-20.601c2.583-24.983,2.929-50.837,2.929-50.837
					C340.803,282.895,336.209,276.893,329.595,275.219L329.595,275.219z"/>
			</g>
		</g>
		<g>
			<defs>
				<path id="XMLID_8_" d="M306.171,256.357c0,0,4.403,1.355,3.726,5.08c-0.677,3.726-1.355,7.112-1.355,7.112
					s24.046,0.677,23.708-0.677c-0.339-1.355-7.112-24.385-7.112-24.385S312.267,242.81,306.171,256.357z"/>
			</defs>
			<use xlink:href="#XMLID_8_"  style="overflow:visible;fill:#FFFFFF;"/>
			<clipPath id="XMLID_00000156569221691714635290000000354184469296069564_">
				<use xlink:href="#XMLID_8_"  style="overflow:visible;"/>
			</clipPath>
			<g style="clip-path:url(#XMLID_00000156569221691714635290000000354184469296069564_);">
				<path style="fill:#92E3A9;" d="M327.594,253.634l-17.697,7.804l-0.303,1.82c0,0,14.792-1.96,19.069-6.059L327.594,253.634"/>
				<path style="opacity:0.5;fill:#FFFFFF;enable-background:new    ;" d="M327.594,253.634l-17.697,7.804l-0.303,1.82
					c0,0,14.792-1.96,19.069-6.059L327.594,253.634"/>
			</g>
			<use xlink:href="#XMLID_8_"  style="overflow:visible;fill:none;stroke:#263238;stroke-linecap:round;stroke-linejoin:round;"/>
		</g>
		<g>
			<defs>
				<path id="XMLID_4_" d="M283.818,272.614c-7.039,4.423-4.928,9.26-3.234,17.651c3.819,18.909,8.933,55.446,6.978,64.648
					c-2.286,10.759-8.693,17.613-17.499,17.613c-4.092,0-5.052,3.931-9.483,2.032c-9.483-4.064-16.622-1.093-19.982,1.693
					c-13.886,11.515,3.662,52.195,24.046,61.979c18.192,8.732,37.707,3.045,47.318-0.886c3.44-1.407,7.082-0.74,10.686,0.172
					c18.877,4.778,34.118-11.479,35.811-26.042c2.601-22.366-4.403-23.369-7.922-48.093c-0.372-2.615-0.316-5.339-0.332-8.13
					c-0.101-17.104,6.788-32.966,5.074-58.929c-0.675-10.227-2.289-23.355-9.144-27.095
					C317.398,253.553,284.046,272.471,283.818,272.614z"/>
			</defs>
			<use xlink:href="#XMLID_4_"  style="overflow:visible;fill:#92E3A9;"/>
			<clipPath id="XMLID_00000167384115774594531410000018194656265477245063_">
				<use xlink:href="#XMLID_4_"  style="overflow:visible;"/>
			</clipPath>
			<g style="clip-path:url(#XMLID_00000167384115774594531410000018194656265477245063_);">
				<path style="opacity:0.2;" d="M302.581,324.317c-1.471,8.828-2.943,17.657-4.414,26.485c-0.591,3.546-1.251,7.254-3.461,10.089
					c-2.21,2.835-6.502,4.396-9.504,2.418c-0.277-3.964,3.116-7.059,5.582-10.175c6.637-8.386,7.449-19.848,7.744-30.538
					c0.273-9.89-0.379-28.647,9.958-34.156C307.524,300.372,304.552,312.491,302.581,324.317z"/>
				<path style="opacity:0.2;" d="M309.375,365.519c0.156,0.2,0.312,0.399,0.468,0.599c-0.868,1.073-2.364,1.345-3.727,1.561
					c-1.363,0.215-2.862,0.526-3.683,1.635c-0.821,1.109-0.193,3.179,1.182,3.07c-1.752,0.138-14.81-0.348-12.613-4.671
					C292.138,365.479,306.662,365.776,309.375,365.519z"/>
				<path style="opacity:0.2;" d="M283.023,387.961c0.686,0.6,1.433,1.55,0.934,2.313c-0.502,0.769-1.691,0.453-2.487-0.005
					c-3.616-2.081-6.988-5.726-8.115-9.799C276.441,380.518,280.671,385.904,283.023,387.961z"/>
				<path style="opacity:0.2;" d="M269.469,384.653c0.013,2.496,0.728,4.984,2.041,7.107c-1.279-1.706-2.557-3.412-3.836-5.118
					c4.372,9.342,11.693,17.277,20.652,22.387c-3.741-2.125-6.588-5.77-7.742-9.914c0.391,1.405,3.689-0.207,3.131-2.088
					c-0.492-1.659-2.721-1.128-4.04-1.692C275.192,393.418,272.079,388.527,269.469,384.653z"/>
				<g style="opacity:0.2;">
					<path d="M236.079,391.129c8.854,16.232,25.201,28.54,40.612,38.756c18.289,12.125,36.289,5.531,52.863,2.145
						c-3.564,2.139-2.694,3.912,0.891,4.634c5.635-0.107,10.674-3.167,15.149-6.594c4.475-3.427,8.198-8.554,12.832-17.287
						c-2.139,13.99-18.891,28.337-33.327,25.307c-5.014-1.052-9.178-1.515-12.459-0.537c-3.863,1.152-4.723,1.401-11.779,3.388
						c-12.654,3.564-30.643,3.276-42.404-6.115c-7.431-5.934-12.631-13.462-16.408-21.899c-3.062-6.839-4.967-14.139-5.94-21.569
						L236.079,391.129z"/>
				</g>
				<path style="opacity:0.2;" d="M351.64,333.802c-0.07,6.052-1.551,12.006-1.871,18.049c0.269-5.071-1.249-10.567-1.229-15.74
					c0.015-3.872-0.735-11.908,1.647-15.055C351.411,324.975,351.687,329.707,351.64,333.802z"/>
			</g>
			<use xlink:href="#XMLID_4_"  style="overflow:visible;fill:none;stroke:#263238;stroke-linecap:round;stroke-linejoin:round;"/>
		</g>
		<g>
			<g>
				<defs>
					<path id="XMLID_7_" d="M248.328,352.651c0,0-7.065-4.534-8.94-4.355c-1.874,0.18-4.349,1.599-5.052,1.667
						c-0.703,0.067-2.387-0.244-3.492,0.571c-0.819,0.681-1.539,1.474-2.138,2.354c-1.165,0.659-2.283,1.398-3.345,2.212
						c-1.762,1.351-5.696,7.166-6.285,8.416c-0.59,1.249,0.18,1.874,1.284,1.059c0.815-0.602,4.195-3.775,5.909-5.395
						c0.622-0.588,1.522-0.764,2.319-0.453c1.892,0.739,5.276,2.134,6.367,3.062c1.879,1.671,4.211,2.749,6.702,3.097
						c2.363,0.233,4.742,0.242,7.106,0.028c0,0,3.833-4.86,2.771-8.079C251.079,355.063,249.921,353.552,248.328,352.651z"/>
				</defs>
				<use xlink:href="#XMLID_7_"  style="overflow:visible;fill:#FFFFFF;"/>
				<clipPath id="XMLID_00000085955681200087635220000012836564787211002241_">
					<use xlink:href="#XMLID_7_"  style="overflow:visible;"/>
				</clipPath>
				<g style="clip-path:url(#XMLID_00000085955681200087635220000012836564787211002241_);">
					<path style="fill:#92E3A9;enable-background:new    ;" d="M294.076,331.475c-2.601,6.921-6.664,13.476-12.601,17.883
						c-4.44,3.296-9.713,5.251-14.952,7.018c-4.836,1.631-9.714,3.139-14.626,4.522c-1.571,0.442-3.395,0.832-4.722-0.117
						c-1.181-0.844-1.513-2.519-1.177-3.931c0.336-1.412,1.208-2.627,2.061-3.802c-2.341,0.654-4.311,2.512-5.101,4.811
						c-0.428,1.245-0.602,2.715-1.653,3.507c-1.225,0.923-3.16,0.319-3.968-0.985c-0.808-1.304-0.655-3.026,0.002-4.411
						c0.657-1.386,1.75-2.509,2.823-3.605c-1.139-0.347-2.226,0.682-2.824,1.713c-0.597,1.03-1.106,2.256-2.202,2.724
						c-1.339,0.572-2.813-0.273-4.229-0.617c-2.531-0.615-5.249,0.471-7.152,2.25s-3.116,4.166-4.123,6.568
						c1.07-2.662,3.502-4.734,6.3-5.367c2.798-0.634,5.885,0.188,7.998,2.129c0.997,0.916,1.808,2.076,3.005,2.708
						c1.166,0.616,2.542,0.649,3.86,0.648c13.076-0.009,26.149-1.971,38.651-5.803c5.334-1.635,10.884-3.842,14.138-8.374
						c2.536-3.533,3.32-7.999,3.877-12.313c0.588-4.547,1.002-9.116,1.241-13.695c0.215-4.116,0.799-8.777,0.123-12.852
						C297.366,318.62,296.447,325.162,294.076,331.475z"/>
					<path style="opacity:0.5;fill:#FFFFFF;enable-background:new    ;" d="M294.076,331.475
						c-2.601,6.921-6.664,13.476-12.601,17.883c-4.44,3.296-9.713,5.251-14.952,7.018c-4.836,1.631-9.714,3.139-14.626,4.522
						c-1.571,0.442-3.395,0.832-4.722-0.117c-1.181-0.844-1.513-2.519-1.177-3.931c0.336-1.412,1.208-2.627,2.061-3.802
						c-2.341,0.654-4.311,2.512-5.101,4.811c-0.428,1.245-0.602,2.715-1.653,3.507c-1.225,0.923-3.16,0.319-3.968-0.985
						c-0.808-1.304-0.655-3.026,0.002-4.411c0.657-1.386,1.75-2.509,2.823-3.605c-1.139-0.347-2.226,0.682-2.824,1.713
						c-0.597,1.03-1.106,2.256-2.202,2.724c-1.339,0.572-2.813-0.273-4.229-0.617c-2.531-0.615-5.249,0.471-7.152,2.25
						s-3.116,4.166-4.123,6.568c1.07-2.662,3.502-4.734,6.3-5.367c2.798-0.634,5.885,0.188,7.998,2.129
						c0.997,0.916,1.808,2.076,3.005,2.708c1.166,0.616,2.542,0.649,3.86,0.648c13.076-0.009,26.149-1.971,38.651-5.803
						c5.334-1.635,10.884-3.842,14.138-8.374c2.536-3.533,3.32-7.999,3.877-12.313c0.588-4.547,1.002-9.116,1.241-13.695
						c0.215-4.116,0.799-8.777,0.123-12.852C297.366,318.62,296.447,325.162,294.076,331.475z"/>
				</g>
				<use xlink:href="#XMLID_7_"  style="overflow:visible;fill:none;stroke:#263238;stroke-linecap:round;stroke-linejoin:round;"/>
			</g>
			<g>
				<defs>
					<path id="XMLID_5_" d="M298.965,292.709c-0.454-6.807-6.757-20.073-13.486-21.196c-1.49,0.819-2.961,1.787-4.404,2.941
						c-2.562,2.05-3.339,6.131-3.56,14.754c-0.22,8.623,1.355,28.449,0.339,46.738c-0.019,0.338-25.512,14.114-29.936,16.257
						c-4.424,2.143-7.273,6.167-4.765,10.395c2.227,3.754,7.005,2.937,11.332,2.362c5.805-0.771,33.034-6.448,37.932-11.515
						C302.238,343.286,298.965,292.709,298.965,292.709z"/>
				</defs>
				<use xlink:href="#XMLID_5_"  style="overflow:visible;fill:#FFFFFF;"/>
				<clipPath id="XMLID_00000166638243610145783970000017928310001200194205_">
					<use xlink:href="#XMLID_5_"  style="overflow:visible;"/>
				</clipPath>
				<g style="clip-path:url(#XMLID_00000166638243610145783970000017928310001200194205_);">
					<path style="fill:#92E3A9;enable-background:new    ;" d="M294.076,331.475c-2.601,6.921-6.664,13.476-12.601,17.883
						c-4.44,3.296-9.713,5.251-14.952,7.018c-4.836,1.631-9.714,3.139-14.626,4.522c-1.571,0.442-3.395,0.832-4.722-0.117
						c-1.181-0.844-1.513-2.519-1.177-3.931c0.336-1.412,1.208-2.627,2.061-3.802c-2.341,0.654-4.311,2.512-5.101,4.811
						c-0.428,1.245-0.602,2.715-1.653,3.507c-1.225,0.923-3.16,0.319-3.968-0.985c-0.808-1.304-0.655-3.026,0.002-4.411
						c0.657-1.386,1.75-2.509,2.823-3.605c-1.139-0.347-2.226,0.682-2.824,1.713c-0.597,1.03-1.106,2.256-2.202,2.724
						c-1.339,0.572-2.813-0.273-4.229-0.617c-2.531-0.615-5.249,0.471-7.152,2.25s-3.116,4.166-4.123,6.568
						c1.07-2.662,3.502-4.734,6.3-5.367c2.798-0.634,5.885,0.188,7.998,2.129c0.997,0.916,1.808,2.076,3.005,2.708
						c1.166,0.616,2.542,0.649,3.86,0.648c13.076-0.009,26.149-1.971,38.651-5.803c5.334-1.635,10.884-3.842,14.138-8.374
						c2.536-3.533,3.32-7.999,3.877-12.313c0.588-4.547,1.002-9.116,1.241-13.695c0.215-4.116,0.799-8.777,0.123-12.852
						C297.366,318.62,296.447,325.162,294.076,331.475z"/>
					<path style="opacity:0.5;fill:#FFFFFF;enable-background:new    ;" d="M294.076,331.475
						c-2.601,6.921-6.664,13.476-12.601,17.883c-4.44,3.296-9.713,5.251-14.952,7.018c-4.836,1.631-9.714,3.139-14.626,4.522
						c-1.571,0.442-3.395,0.832-4.722-0.117c-1.181-0.844-1.513-2.519-1.177-3.931c0.336-1.412,1.208-2.627,2.061-3.802
						c-2.341,0.654-4.311,2.512-5.101,4.811c-0.428,1.245-0.602,2.715-1.653,3.507c-1.225,0.923-3.16,0.319-3.968-0.985
						c-0.808-1.304-0.655-3.026,0.002-4.411c0.657-1.386,1.75-2.509,2.823-3.605c-1.139-0.347-2.226,0.682-2.824,1.713
						c-0.597,1.03-1.106,2.256-2.202,2.724c-1.339,0.572-2.813-0.273-4.229-0.617c-2.531-0.615-5.249,0.471-7.152,2.25
						s-3.116,4.166-4.123,6.568c1.07-2.662,3.502-4.734,6.3-5.367c2.798-0.634,5.885,0.188,7.998,2.129
						c0.997,0.916,1.808,2.076,3.005,2.708c1.166,0.616,2.542,0.649,3.86,0.648c13.076-0.009,26.149-1.971,38.651-5.803
						c5.334-1.635,10.884-3.842,14.138-8.374c2.536-3.533,3.32-7.999,3.877-12.313c0.588-4.547,1.002-9.116,1.241-13.695
						c0.215-4.116,0.799-8.777,0.123-12.852C297.366,318.62,296.447,325.162,294.076,331.475z"/>
				</g>
				<use xlink:href="#XMLID_5_"  style="overflow:visible;fill:none;stroke:#263238;stroke-linecap:round;stroke-linejoin:round;"/>
			</g>
		</g>
		<g>
			<path style="fill:#263238;stroke:#263238;stroke-linecap:round;stroke-linejoin:round;" d="M348.169,233.544
				c4.288-8.379,0.5-19.246-5.076-26.829c-9.183-12.488-28.667-16.188-43.309-14.204c-6.863,0.93-13.746,4.255-17.3,10.2
				c-3.554,5.944-2.706,14.667,2.954,18.658c5.312,3.746,13.743,3.142,16.964,8.788c3.438,6.027-2.268,13.221-2.366,20.159
				c-0.062,4.373,2.159,8.526,2.176,12.899C302.211,263.215,335.975,257.373,348.169,233.544z"/>
		</g>
		<g>
			<defs>
				<path id="XMLID_6_" d="M249.827,351.358c0,0,0.108,0.972-3.98-1.693c-3.895-2.54-14.055,6.774-10.15,13.131l0.328,1.094
					c0.443,1.479,3.279,0.521,4.742,1.016c2.252,0.762,3.695,0.718,5.588,0.508C249.404,365.074,240.937,359.994,249.827,351.358z"
					/>
			</defs>
			<use xlink:href="#XMLID_6_"  style="overflow:visible;fill:#FFFFFF;"/>
			<clipPath id="XMLID_00000183248221540113411850000002916167924011285388_">
				<use xlink:href="#XMLID_6_"  style="overflow:visible;"/>
			</clipPath>
			<g style="clip-path:url(#XMLID_00000183248221540113411850000002916167924011285388_);">
				<path style="fill:#92E3A9;enable-background:new    ;" d="M294.076,331.475c-2.601,6.921-6.664,13.476-12.601,17.883
					c-4.44,3.296-9.713,5.251-14.952,7.018c-4.836,1.631-9.714,3.139-14.626,4.522c-1.571,0.442-3.395,0.832-4.722-0.117
					c-1.181-0.844-1.513-2.519-1.177-3.931c0.336-1.412,1.208-2.627,2.061-3.802c-2.341,0.654-4.311,2.512-5.101,4.811
					c-0.428,1.245-0.602,2.715-1.653,3.507c-1.225,0.923-3.16,0.319-3.968-0.985c-0.808-1.304-0.655-3.026,0.002-4.411
					c0.657-1.386,1.75-2.509,2.823-3.605c-1.139-0.347-2.226,0.682-2.824,1.713c-0.597,1.03-1.106,2.256-2.202,2.724
					c-1.339,0.572-2.813-0.273-4.229-0.617c-2.531-0.615-5.249,0.471-7.152,2.25s-3.116,4.166-4.123,6.568
					c1.07-2.662,3.502-4.734,6.3-5.367c2.798-0.634,5.885,0.188,7.998,2.129c0.997,0.916,1.808,2.076,3.005,2.708
					c1.166,0.616,2.542,0.649,3.86,0.648c13.076-0.009,26.149-1.971,38.651-5.803c5.334-1.635,10.884-3.842,14.138-8.374
					c2.536-3.533,3.32-7.999,3.877-12.313c0.588-4.547,1.002-9.116,1.241-13.695c0.215-4.116,0.799-8.777,0.123-12.852
					C297.366,318.62,296.447,325.162,294.076,331.475z"/>
				<path style="opacity:0.5;fill:#FFFFFF;enable-background:new    ;" d="M294.076,331.475
					c-2.601,6.921-6.664,13.476-12.601,17.883c-4.44,3.296-9.713,5.251-14.952,7.018c-4.836,1.631-9.714,3.139-14.626,4.522
					c-1.571,0.442-3.395,0.832-4.722-0.117c-1.181-0.844-1.513-2.519-1.177-3.931c0.336-1.412,1.208-2.627,2.061-3.802
					c-2.341,0.654-4.311,2.512-5.101,4.811c-0.428,1.245-0.602,2.715-1.653,3.507c-1.225,0.923-3.16,0.319-3.968-0.985
					c-0.808-1.304-0.655-3.026,0.002-4.411c0.657-1.386,1.75-2.509,2.823-3.605c-1.139-0.347-2.226,0.682-2.824,1.713
					c-0.597,1.03-1.106,2.256-2.202,2.724c-1.339,0.572-2.813-0.273-4.229-0.617c-2.531-0.615-5.249,0.471-7.152,2.25
					s-3.116,4.166-4.123,6.568c1.07-2.662,3.502-4.734,6.3-5.367c2.798-0.634,5.885,0.188,7.998,2.129
					c0.997,0.916,1.808,2.076,3.005,2.708c1.166,0.616,2.542,0.649,3.86,0.648c13.076-0.009,26.149-1.971,38.651-5.803
					c5.334-1.635,10.884-3.842,14.138-8.374c2.536-3.533,3.32-7.999,3.877-12.313c0.588-4.547,1.002-9.116,1.241-13.695
					c0.215-4.116,0.799-8.777,0.123-12.852C297.366,318.62,296.447,325.162,294.076,331.475z"/>
			</g>
			<use xlink:href="#XMLID_6_"  style="overflow:visible;fill:none;stroke:#263238;stroke-linecap:round;stroke-linejoin:round;"/>
		</g>
		<g>
			<path style="fill:none;stroke:#757575;stroke-linecap:round;stroke-linejoin:round;" d="M294.93,197.462
				c-2.929,3.618-2.707,8.938-1.062,13.292c1.645,4.355,4.491,8.143,6.563,12.311c2.072,4.169,4.631,8.477,2.903,12.8
				c2.561-9.279,2.868-19.171,0.886-28.591"/>
			<path style="fill:none;stroke:#757575;stroke-linecap:round;stroke-linejoin:round;" d="M307.9,194.529
				c15.298,14.729,19.908,29.074,20.597,42.296"/>
			<path style="fill:none;stroke:#757575;stroke-linecap:round;stroke-linejoin:round;" d="M300.148,201.844
				c3.698,9.306,4.874,19.6,3.371,29.501"/>
			<path style="fill:none;stroke:#757575;stroke-linecap:round;stroke-linejoin:round;" d="M286.727,200.707
				c-2.192,2.047-3.65,4.864-4.057,7.835"/>
			<path style="fill:none;stroke:#757575;stroke-linecap:round;stroke-linejoin:round;" d="M290.565,199.533
				c-1.565,3.399-1.675,7.44-0.297,10.92"/>
			<path style="fill:none;stroke:#757575;stroke-linecap:round;stroke-linejoin:round;" d="M323.498,199.136
				c7.848,4.58,13.204,13.175,13.858,22.239"/>
			<path style="fill:none;stroke:#757575;stroke-linecap:round;stroke-linejoin:round;" d="M334.575,201.753
				c1.805,1.176,3.313,2.805,4.346,4.696"/>
		</g>
		<g>
			<path style="fill:none;stroke:#263238;stroke-linecap:round;stroke-linejoin:round;" d="M266.316,379.913
				c2.422,12.096,10.31,22.988,21.048,29.062"/>
			<path style="fill:none;stroke:#263238;stroke-linecap:round;stroke-linejoin:round;" d="M272.054,376.259
				c0.137,6.541,4.939,12.714,11.246,14.455"/>
			<path style="fill:none;stroke:#263238;stroke-linecap:round;stroke-linejoin:round;" d="M310.468,365.204
				c-5.7,0.743-11.399,1.485-17.099,2.228c-0.849,0.111-1.841,0.322-2.191,1.103c-0.3,0.669,0.052,1.486,0.623,1.946
				c0.571,0.46,1.309,0.644,2.023,0.809c7.425,1.718,15.019,2.705,22.637,2.94"/>
			<path style="fill:none;stroke:#263238;stroke-linecap:round;stroke-linejoin:round;" d="M309.125,438.456
				c5.311-2.438,11.461-4.462,17.257-5.206"/>
			<path style="fill:#FFFFFF;stroke:#263238;stroke-linecap:round;stroke-linejoin:round;" d="M248.82,352.012
				c-1.245,0.368-2.313,1.185-3.221,2.113c-0.908,0.928-1.682,1.977-2.545,2.947c-0.154,0.173-0.318,0.349-0.532,0.438
				c-0.214,0.089-0.492,0.067-0.639-0.113c-0.168-0.206-0.1-0.511-0.011-0.762c0.44-1.238,1.196-2.363,2.178-3.238"/>
			<path style="fill:#FFFFFF;stroke:#263238;stroke-linecap:round;stroke-linejoin:round;" d="M304.911,290.892
				c-1.84,6.425-3.68,12.851-5.519,19.276"/>
			<g>
				<path style="fill:none;stroke:#263238;stroke-linecap:round;stroke-linejoin:round;" d="M350.355,318.753
					c-2.339,17.741-0.803,39.251,2.347,55.805"/>
				<path style="fill:none;stroke:#263238;stroke-linecap:round;stroke-linejoin:round;" d="M351.178,312.364
					c-0.116,0.951-0.232,1.902-0.348,2.852"/>
			</g>
		</g>
	</g>
</g>
</svg>
